<?xml version="1.0" encoding="utf-8"?>
<!-- Generator: Adobe Illustrator 27.1.1, SVG Export Plug-In . SVG Version: 6.00 Build 0)  -->
<svg version="1.1" xmlns="http://www.w3.org/2000/svg" xmlns:xlink="http://www.w3.org/1999/xlink" x="0px" y="0px"
	 viewBox="0 0 907 1279" style="enable-background:new 0 0 907 1279;" xml:space="preserve">
<style type="text/css">
	.st0{fill:#FFFFFF;}
	.st1{fill:none;stroke:#FFFFFF;stroke-width:2;stroke-miterlimit:10;}
</style>
<g id="Layer_1">
	<path class="st0" d="M875.99,160.3V89.11h-16.23c-8.93,0-16.67-1.45-23.23-4.35c-6.56-2.9-11.67-7.55-15.32-13.94
		c-3.65-6.39-5.48-14.8-5.48-25.21c0-9.62,1.46-17.83,4.36-24.62c2.91-6.79,7.44-11.96,13.6-15.52c6.16-3.56,14.17-5.34,24.04-5.34
		h48.29V160.3H875.99z M875.99,20.69h-11.36c-6.22,0-10.79,0.86-13.7,2.57c-2.91,1.71-4.8,4.38-5.68,8.01
		c-0.88,3.63-1.32,8.34-1.32,14.14c0,5.67,0.58,10.18,1.72,13.55c1.15,3.36,3.25,5.8,6.29,7.32c3.04,1.52,7.27,2.27,12.68,2.27
		h11.36V20.69z"/>
	<path class="st0" d="M815.72,338.27V178.1h24.81v101.05l45.51-101.05h20.3v160.18h-25.01V235.64l-45.72,102.63H815.72z"/>
	<g id="ankl3">
		<path class="st1" d="M815.72,872.19V712.02h28.69v67.23h5.85l25.57-67.23h28.69l-30.06,75.54l32.4,84.64h-29.28l-27.32-73.76
			h-5.85v73.76H815.72z"/>
		<path class="st1" d="M785.92,1050.16v-20.96c4.28,0.13,3.38,0.58,6.18-0.61c2.7-1.15,4.04-2.03,6.1-4.14
			c2.06-2.11,3.78-5.37,5.16-9.79c1.38-4.42,2.52-10.38,3.44-17.9c0.92-7.51,1.91-17.07,2.98-28.67l5.96-78.11h90.36v160.18H872.4
			V911.94h-26.6l-4.13,59.72c-0.92,11.74-1.95,22.08-3.1,31.05c-1.15,8.97-2.91,16.58-5.27,22.84c-2.37,6.26-5.7,11.31-9.98,15.13
			c-4.28,3.83-9.94,6.5-16.97,8.01C799.31,1050.2,796.62,1050.69,785.92,1050.16z"/>
		<path class="st1" d="M815.72,516.25l30.42-160.18h29.67l30.42,160.18h-25.73l-6.01-36.98h-26.48l-6.2,36.98H815.72z
			 M850.84,460.68h20.66l-10.33-67.23L850.84,460.68z"/>
		<path class="st1" d="M815.72,694.22V534.04h28.96v67.04h32.5v-67.04h29.15v160.18h-29.15v-72.38h-32.5v72.38H815.72z"/>
	</g>
	<g>
		<g>
			<path class="st0" d="M817.87,1068.38v8.43h-8.49c-0.55,0-1,0.45-1,1v52.07h-12.11v-52.07c0-0.55-0.45-1-1-1h-8.56v-8.43H817.87
				 M818.87,1067.38h-33.16v10.43h9.56v53.07h14.11v-53.07h9.49V1067.38L818.87,1067.38z"/>
		</g>
		<g>
			<path class="st0" d="M845.76,1068.38c3.62,0,6.61,0.68,8.9,2.02c2.26,1.32,3.97,3.28,5.08,5.81c1.14,2.61,1.72,5.83,1.72,9.59
				c0,4.7-0.77,8.3-2.28,10.72c-1.49,2.38-3.54,4.05-6.07,4.96c-2.65,0.95-5.67,1.43-8.99,1.43h-5.64c-0.55,0-1,0.45-1,1v25.97
				h-12.03v-61.49H845.76 M838.47,1095.11h4.7c1.95,0,3.42-0.37,4.5-1.12c1.09-0.77,1.82-1.92,2.16-3.42c0.3-1.32,0.46-3.01,0.46-5
				c0-1.67-0.12-3.17-0.37-4.46c-0.28-1.46-0.96-2.64-2.03-3.52c-1.08-0.89-2.65-1.32-4.79-1.32h-4.62c-0.55,0-1,0.45-1,1v16.85
				C837.47,1094.66,837.92,1095.11,838.47,1095.11 M845.76,1067.38h-21.32v63.49h14.03v-26.97h5.64c3.45,0,6.56-0.5,9.33-1.49
				c2.77-0.99,4.96-2.78,6.58-5.37c1.62-2.59,2.43-6.34,2.43-11.25c0-3.92-0.6-7.25-1.8-9.99c-1.2-2.74-3.03-4.83-5.49-6.27
				C852.71,1068.09,849.57,1067.38,845.76,1067.38L845.76,1067.38z M838.47,1094.11v-16.85h4.62c1.88,0,3.27,0.37,4.15,1.1
				c0.89,0.73,1.45,1.71,1.69,2.94c0.23,1.23,0.35,2.65,0.35,4.27c0,1.93-0.14,3.53-0.43,4.78c-0.29,1.25-0.88,2.19-1.76,2.82
				c-0.89,0.63-2.2,0.94-3.92,0.94H838.47L838.47,1094.11z"/>
		</g>
		<g>
			<path class="st0" d="M904.8,1068.38v61.49h-9.29v-36c0-0.47-0.33-0.88-0.79-0.98c-0.07-0.01-0.14-0.02-0.21-0.02
				c-0.39,0-0.75,0.23-0.91,0.59l-16.27,36.41h-6.9v-61.49h9.05v35.37c0,0.47,0.33,0.88,0.79,0.98c0.07,0.01,0.14,0.02,0.21,0.02
				c0.39,0,0.75-0.23,0.91-0.59l15.96-35.78H904.8 M905.8,1067.38h-9.09l-16.23,36.37v-36.37h-11.05v63.49h8.54l16.54-37v37h11.29
				V1067.38L905.8,1067.38z"/>
		</g>
		<g>
			<path class="st0" d="M817.87,1142.44v8.43h-8.49c-0.55,0-1,0.45-1,1v52.07h-12.11v-52.07c0-0.55-0.45-1-1-1h-8.56v-8.43H817.87
				 M818.87,1141.44h-33.16v10.43h9.56v53.07h14.11v-53.07h9.49V1141.44L818.87,1141.44z"/>
		</g>
		<g>
			<path class="st0" d="M845.76,1142.44c3.62,0,6.61,0.68,8.9,2.02c2.26,1.32,3.97,3.28,5.08,5.81c1.14,2.61,1.72,5.83,1.72,9.59
				c0,4.7-0.77,8.3-2.28,10.72c-1.49,2.38-3.54,4.05-6.07,4.96c-2.65,0.95-5.67,1.43-8.99,1.43h-5.64c-0.55,0-1,0.45-1,1v25.97
				h-12.03v-61.49H845.76 M838.47,1169.17h4.7c1.95,0,3.42-0.37,4.5-1.12c1.09-0.77,1.82-1.92,2.16-3.42c0.3-1.32,0.46-3.01,0.46-5
				c0-1.67-0.12-3.17-0.37-4.46c-0.28-1.46-0.96-2.64-2.03-3.52c-1.08-0.89-2.65-1.32-4.79-1.32h-4.62c-0.55,0-1,0.45-1,1v16.85
				C837.47,1168.72,837.92,1169.17,838.47,1169.17 M845.76,1141.44h-21.32v63.49h14.03v-26.97h5.64c3.45,0,6.56-0.5,9.33-1.49
				c2.77-0.99,4.96-2.78,6.58-5.37c1.62-2.59,2.43-6.34,2.43-11.25c0-3.92-0.6-7.25-1.8-9.99c-1.2-2.74-3.03-4.83-5.49-6.27
				C852.71,1142.16,849.57,1141.44,845.76,1141.44L845.76,1141.44z M838.47,1168.17v-16.85h4.62c1.88,0,3.27,0.37,4.15,1.1
				c0.89,0.73,1.45,1.71,1.69,2.94c0.23,1.23,0.35,2.65,0.35,4.27c0,1.93-0.14,3.53-0.43,4.78c-0.29,1.25-0.88,2.19-1.76,2.82
				c-0.89,0.63-2.2,0.94-3.92,0.94H838.47L838.47,1168.17z"/>
		</g>
		<g>
			<path class="st0" d="M904.8,1142.44v61.49h-9.29v-36c0-0.47-0.33-0.88-0.79-0.98c-0.07-0.01-0.14-0.02-0.21-0.02
				c-0.39,0-0.75,0.23-0.91,0.59l-16.27,36.41h-6.9v-61.49h9.05v35.37c0,0.47,0.33,0.88,0.79,0.98c0.07,0.01,0.14,0.02,0.21,0.02
				c0.39,0,0.75-0.23,0.91-0.59l15.96-35.78H904.8 M905.8,1141.44h-9.09l-16.23,36.37v-36.37h-11.05v63.49h8.54l16.54-37v37h11.29
				V1141.44L905.8,1141.44z"/>
		</g>
		<g>
			<path class="st0" d="M817.87,1216.51v8.43h-8.49c-0.55,0-1,0.45-1,1V1278h-12.11v-52.07c0-0.55-0.45-1-1-1h-8.56v-8.43H817.87
				 M818.87,1215.51h-33.16v10.43h9.56V1279h14.11v-53.07h9.49V1215.51L818.87,1215.51z"/>
		</g>
		<g>
			<path class="st0" d="M845.76,1216.51c3.62,0,6.61,0.68,8.9,2.02c2.26,1.32,3.97,3.28,5.08,5.81c1.14,2.6,1.72,5.83,1.72,9.59
				c0,4.7-0.77,8.3-2.28,10.72c-1.49,2.38-3.54,4.05-6.07,4.96c-2.65,0.95-5.67,1.43-8.99,1.43h-5.64c-0.55,0-1,0.45-1,1V1278
				h-12.03v-61.49H845.76 M838.47,1243.24h4.7c1.95,0,3.42-0.37,4.5-1.12c1.09-0.77,1.82-1.92,2.16-3.42c0.3-1.32,0.46-3.01,0.46-5
				c0-1.67-0.12-3.17-0.37-4.46c-0.28-1.46-0.96-2.64-2.03-3.52c-1.08-0.89-2.65-1.32-4.79-1.32h-4.62c-0.55,0-1,0.45-1,1v16.85
				C837.47,1242.79,837.92,1243.24,838.47,1243.24 M845.76,1215.51h-21.32V1279h14.03v-26.97h5.64c3.45,0,6.56-0.5,9.33-1.49
				c2.77-0.99,4.96-2.78,6.58-5.37c1.62-2.59,2.43-6.34,2.43-11.25c0-3.92-0.6-7.25-1.8-9.99c-1.2-2.74-3.03-4.83-5.49-6.27
				C852.71,1216.22,849.57,1215.51,845.76,1215.51L845.76,1215.51z M838.47,1242.24v-16.85h4.62c1.88,0,3.27,0.37,4.15,1.1
				c0.89,0.73,1.45,1.71,1.69,2.94c0.23,1.23,0.35,2.65,0.35,4.27c0,1.93-0.14,3.53-0.43,4.78c-0.29,1.25-0.88,2.19-1.76,2.82
				c-0.89,0.63-2.2,0.94-3.92,0.94H838.47L838.47,1242.24z"/>
		</g>
		<g>
			<path class="st0" d="M904.8,1216.51V1278h-9.29v-36c0-0.47-0.33-0.88-0.79-0.98c-0.07-0.01-0.14-0.02-0.21-0.02
				c-0.39,0-0.75,0.23-0.91,0.59L877.33,1278h-6.9v-61.49h9.05v35.37c0,0.47,0.33,0.88,0.79,0.98c0.07,0.01,0.14,0.02,0.21,0.02
				c0.39,0,0.75-0.23,0.91-0.59l15.96-35.78H904.8 M905.8,1215.51h-9.09l-16.23,36.37v-36.37h-11.05V1279h8.54l16.54-37v37h11.29
				V1215.51L905.8,1215.51z"/>
		</g>
	</g>
	<g>
		<path class="st0" d="M697.74,160.22l24.46-49.94l21.95,4.21l-22.26,45.73H697.74z M764.21,160.22v-38.08h-26.34l-9.41-0.62
			c-10.03-1.56-17.4-5.68-22.1-12.37c-4.7-6.68-7.05-14.73-7.05-24.15c0-6.29,1.02-12,3.06-17.13c2.04-5.12,5.21-9.38,9.52-12.76
			c4.31-3.38,9.84-5.59,16.58-6.63c1.46-0.26,3.12-0.43,4.98-0.51c1.86-0.08,3.33-0.12,4.43-0.12h47.66v112.37H764.21z
			 M764.21,67.67h-25.4c-1.1,0-2.3,0.05-3.61,0.16c-1.31,0.1-2.51,0.31-3.61,0.62c-2.87,0.78-5.09,2.09-6.66,3.94
			c-1.57,1.85-2.65,3.9-3.25,6.17c-0.6,2.26-0.9,4.41-0.9,6.44s0.3,4.17,0.9,6.44c0.6,2.26,1.68,4.32,3.25,6.16
			c1.57,1.85,3.79,3.16,6.66,3.94c1.1,0.31,2.3,0.52,3.61,0.62c1.31,0.1,2.51,0.16,3.61,0.16h25.4V67.67z"/>
		<path class="st0" d="M602.86,155.22c-8.18-4.89-14.47-11.73-18.89-20.52c-4.42-8.79-6.62-19.01-6.62-30.67
			c0-11.65,2.21-21.88,6.62-30.67c4.42-8.79,10.71-15.63,18.89-20.52c8.18-4.89,17.91-7.33,29.2-7.33s21.02,2.45,29.2,7.33
			c8.18,4.89,14.47,11.73,18.89,20.52c4.42,8.79,6.62,19.01,6.62,30.67c0,11.65-2.21,21.88-6.62,30.67
			c-4.42,8.79-10.71,15.63-18.89,20.52c-8.18,4.89-17.91,7.33-29.2,7.33S611.04,160.11,602.86,155.22z M649.93,137.67
			c4.76-3.17,8.32-7.62,10.7-13.34c2.38-5.72,3.57-12.49,3.57-20.29s-1.19-14.62-3.57-20.44c-2.38-5.83-5.94-10.33-10.7-13.5
			c-4.75-3.17-10.71-4.71-17.87-4.6c-7.16,0.1-13.12,1.74-17.87,4.92c-4.75,3.17-8.32,7.62-10.7,13.34
			c-2.38,5.72-3.57,12.49-3.57,20.29s1.19,14.62,3.57,20.44c2.38,5.83,5.95,10.33,10.7,13.5c4.76,3.17,10.71,4.71,17.87,4.6
			C639.22,142.48,645.18,140.84,649.93,137.67z"/>
		<path class="st0" d="M520.99,158.81c-5.12-2.5-9.28-6.5-12.46-12.02c-1.46-2.5-2.44-4.9-2.94-7.22c-0.5-2.31-0.76-4.8-0.78-7.45
			c-0.03-2.65-0.04-5.77-0.04-9.36V47.85h21.63v74.91c0,2.86,0.05,5.38,0.16,7.57c0.11,2.19,0.47,4.03,1.1,5.54
			c0.99,2.39,2.63,4.14,4.9,5.23c2.27,1.09,4.4,1.64,6.39,1.64c2.87,0,5.59-1.05,8.15-3.16c2.56-2.11,4.08-4.59,4.55-7.45
			l21.01,4.99c-2.46,7.8-6.6,13.99-12.42,18.57c-5.83,4.58-13.23,6.87-22.22,6.87C531.78,162.56,526.11,161.31,520.99,158.81z"/>
		<path class="st0" d="M407.57,160.22V140.4h52.36v-28.87h-42.96V91.71h42.96V67.67h-52.36V47.85h73.68v112.37H407.57z"/>
		<path class="st0" d="M311.59,152.96c-8.8-6.4-15.01-15.06-18.62-25.98l21.48-5.93c2.09,6.76,5.62,12.04,10.58,15.84
			c4.97,3.8,11.37,5.7,19.2,5.7c7.16,0,13.13-1.59,17.91-4.76c4.78-3.17,8.38-7.65,10.78-13.42c2.4-5.77,3.61-12.56,3.61-20.37
			s-1.2-14.59-3.61-20.37c-2.4-5.77-6-10.25-10.78-13.42c-4.78-3.17-10.75-4.76-17.91-4.76c-7.84,0-14.24,1.89-19.2,5.66
			c-4.96,3.77-8.49,9.07-10.58,15.88l-21.48-5.93c3.61-10.92,9.81-19.59,18.62-25.98c8.81-6.4,19.69-9.6,32.65-9.6
			c11.29,0,21.02,2.45,29.2,7.33c8.18,4.89,14.48,11.73,18.89,20.52c4.42,8.79,6.62,19.01,6.62,30.67c0,11.65-2.21,21.88-6.62,30.67
			c-4.42,8.79-10.71,15.63-18.89,20.52c-8.18,4.89-17.91,7.33-29.2,7.33C331.27,162.56,320.39,159.36,311.59,152.96z"/>
		<path class="st0" d="M228.23,160.22V67.67h-35.59V47.85h92.49v19.82h-35.59v92.55H228.23z"/>
		<path class="st0" d="M120.73,160.37c-5.41-1.46-10.25-3.65-14.54-6.59c-4.28-2.94-7.69-6.66-10.23-11.16
			c-2.53-4.5-3.8-9.77-3.8-15.8c0-5.67,1.06-10.35,3.17-14.05c2.12-3.69,4.81-6.67,8.07-8.93c3.27-2.26,6.68-4.03,10.23-5.31
			c3.55-1.27,6.79-2.3,9.72-3.08l19.6-5.31c2.4-0.62,4.76-1.4,7.05-2.34c2.3-0.94,4.21-2.17,5.72-3.71
			c1.52-1.53,2.27-3.52,2.27-5.97c0-2.65-0.93-4.94-2.78-6.87c-1.85-1.92-4.26-3.39-7.21-4.41c-2.95-1.01-6.1-1.47-9.45-1.37
			c-3.4,0.1-6.65,0.81-9.76,2.11c-3.11,1.3-5.79,3.2-8.03,5.7c-2.25,2.5-3.79,5.57-4.62,9.21l-23.04-3.9
			c1.83-7.02,4.81-12.97,8.94-17.83c4.13-4.86,9.25-8.57,15.36-11.12c6.11-2.55,13.06-3.88,20.85-3.98
			c7.73-0.05,14.79,1.14,21.16,3.59c6.38,2.45,11.47,6.16,15.29,11.16c3.81,4.99,5.72,11.26,5.72,18.81c0,5.36-0.9,9.79-2.7,13.3
			c-1.8,3.51-4.06,6.33-6.78,8.47c-2.72,2.13-5.53,3.77-8.43,4.92c-2.9,1.14-5.45,2.03-7.64,2.65l-29.32,8.58
			c-2.19,0.68-4.01,1.43-5.45,2.26c-1.44,0.83-2.55,1.72-3.33,2.65c-0.78,0.94-1.34,1.94-1.69,3c-0.34,1.07-0.51,2.17-0.51,3.32
			c0,3.12,1.06,5.75,3.17,7.88c2.12,2.13,4.82,3.75,8.11,4.84c3.29,1.09,6.69,1.64,10.19,1.64c6.27,0,11.86-1.74,16.77-5.23
			c4.91-3.48,8.15-8.45,9.72-14.9l22.26,3.28c-1.15,7.6-3.88,14.14-8.19,19.62c-4.31,5.49-9.82,9.7-16.54,12.64
			c-6.71,2.94-14.25,4.41-22.61,4.41C131.71,162.56,126.13,161.83,120.73,160.37z"/>
	</g>
</g>
<g id="Layer_2">
</g>
</svg>
