<?xml version="1.0" encoding="utf-8"?>
<!-- Generator: Adobe Illustrator 27.1.1, SVG Export Plug-In . SVG Version: 6.00 Build 0)  -->
<svg version="1.1" xmlns="http://www.w3.org/2000/svg" xmlns:xlink="http://www.w3.org/1999/xlink" x="0px" y="0px"
	 viewBox="0 0 907 172.5" style="enable-background:new 0 0 907 172.5;" xml:space="preserve">
<style type="text/css">
	.st0{fill:none;stroke:#111111;stroke-width:2;stroke-miterlimit:10;}
	.st1{fill:#111111;}
	.st2{opacity:0.8;fill:#111111;}
	.st3{opacity:0.7;fill:#111111;}
	.st4{opacity:0.6;fill:#111111;}
	.st5{opacity:0.5;fill:#111111;}
	.st6{opacity:0.4;fill:#111111;}
</style>
<g id="Layer_1">
	<path class="st0" d="M575.93,170.85l2.51-135.91h34.41l15.95,79.03l17.21-79.03h33.16l2.51,135.91h-22.76l-2.69-90.44l-16.85,90.44
		h-20.25L601.2,79.74l-2.15,91.11H575.93z"/>
	<path class="st0" d="M702.64,170.85V34.94h65.24v20.47h-33.16v33.72h25.27v20.81h-25.27v40.6h33.51v20.3H702.64z"/>
	<g>
		<path class="st1" d="M9.27,26.38c-1.32,0-2.48-0.19-3.47-0.58s-1.82-0.89-2.48-1.5s-1.18-1.26-1.54-1.94l2.69-1.83
			c0.21,0.48,0.51,0.94,0.91,1.38s0.93,0.8,1.58,1.08s1.46,0.42,2.43,0.42c0.93,0,1.69-0.14,2.29-0.42c0.59-0.28,1.03-0.64,1.31-1.1
			c0.28-0.45,0.42-0.94,0.42-1.48c0-0.66-0.18-1.17-0.55-1.54s-0.85-0.61-1.44-0.76c-0.59-0.14-1.22-0.22-1.89-0.24
			c-0.61-0.02-1.05-0.03-1.32-0.04c-0.27-0.01-0.45-0.01-0.54-0.01c-0.09,0-0.17,0-0.25,0v-2.98c0.1,0,0.26,0,0.49,0
			c0.23,0,0.47,0,0.72-0.01c0.25,0,0.45-0.01,0.61-0.02c0.99-0.04,1.81-0.27,2.45-0.69c0.64-0.42,0.96-1.04,0.96-1.86
			c0-0.79-0.3-1.42-0.9-1.87c-0.6-0.45-1.39-0.68-2.37-0.68c-0.92,0-1.74,0.2-2.44,0.61c-0.7,0.41-1.23,0.89-1.59,1.45L3.16,9.55
			c0.64-0.78,1.5-1.43,2.59-1.97c1.09-0.54,2.34-0.8,3.73-0.8c0.82,0,1.62,0.11,2.39,0.32c0.78,0.21,1.47,0.54,2.09,0.97
			s1.11,0.99,1.48,1.67c0.37,0.68,0.55,1.49,0.55,2.43c0,0.86-0.16,1.66-0.49,2.38c-0.33,0.73-0.78,1.32-1.37,1.78
			c0.83,0.33,1.47,0.84,1.93,1.52c0.46,0.68,0.69,1.54,0.69,2.57c0,1.22-0.33,2.27-0.99,3.16c-0.66,0.89-1.56,1.57-2.69,2.06
			C11.94,26.14,10.67,26.38,9.27,26.38z"/>
		<path class="st1" d="M18.58,29.13v-6.09c0.61,0,1.12-0.15,1.53-0.46c0.41-0.3,0.74-0.73,0.99-1.27c0.25-0.54,0.44-1.17,0.58-1.89
			c0.14-0.72,0.25-1.48,0.33-2.29c0.1-1.07,0.18-2.12,0.25-3.16s0.14-2.1,0.2-3.21c0.07-1.11,0.14-2.32,0.23-3.61l12.27,0.03v15.86
			h1.41v6.09h-3.14v-3.14h-11.5v3.14H18.58z M23.48,23.04h8.32V10.13l-6.25-0.03c-0.06,0.91-0.11,1.77-0.15,2.55
			c-0.04,0.79-0.09,1.59-0.14,2.4s-0.13,1.69-0.23,2.65c-0.09,0.94-0.18,1.72-0.28,2.35s-0.25,1.17-0.44,1.63
			C24.12,22.14,23.84,22.6,23.48,23.04z"/>
		<path class="st1" d="M39.24,25.99V7.18h7.77c0.18,0,0.42,0.01,0.71,0.02c0.29,0.01,0.55,0.04,0.8,0.08
			c1.09,0.17,1.99,0.53,2.7,1.08s1.24,1.26,1.58,2.11c0.34,0.85,0.52,1.79,0.52,2.83c0,1.03-0.17,1.97-0.52,2.82
			c-0.35,0.85-0.88,1.55-1.59,2.11c-0.71,0.56-1.61,0.92-2.69,1.08c-0.24,0.04-0.51,0.06-0.8,0.08c-0.29,0.02-0.52,0.03-0.7,0.03
			h-4.63v6.57H39.24z M42.38,16.48h4.5c0.17,0,0.37-0.01,0.59-0.03c0.22-0.02,0.42-0.05,0.6-0.1c0.52-0.13,0.93-0.36,1.23-0.69
			c0.3-0.33,0.51-0.71,0.64-1.12c0.13-0.42,0.19-0.83,0.19-1.23s-0.06-0.81-0.19-1.23c-0.13-0.42-0.34-0.8-0.64-1.13
			c-0.3-0.33-0.71-0.56-1.23-0.69c-0.18-0.05-0.38-0.08-0.6-0.1c-0.22-0.01-0.41-0.02-0.59-0.02h-4.5V16.48z"/>
		<path class="st1" d="M54.62,25.99l5.93-18.82h4.61l5.93,18.82h-3.24L62.47,9.11h0.71l-5.32,16.88H54.62z M57.92,21.92v-2.94h9.88
			v2.94H57.92z"/>
		<path class="st1" d="M73.45,25.99V7.18h7.46c1.27,0,2.31,0.25,3.13,0.76c0.81,0.51,1.42,1.16,1.82,1.95
			c0.4,0.79,0.59,1.61,0.59,2.46c0,1.04-0.25,1.92-0.74,2.64s-1.16,1.21-2.01,1.46V15.8c1.18,0.27,2.08,0.83,2.7,1.69
			c0.61,0.85,0.92,1.83,0.92,2.91c0,1.12-0.21,2.09-0.64,2.93c-0.43,0.84-1.06,1.49-1.9,1.96c-0.84,0.47-1.88,0.71-3.12,0.71H73.45z
			 M76.63,14.69h4.23c0.45,0,0.86-0.09,1.22-0.26c0.36-0.17,0.64-0.43,0.85-0.77c0.21-0.34,0.31-0.76,0.31-1.25
			c0-0.65-0.21-1.2-0.63-1.63c-0.42-0.44-1-0.65-1.75-0.65h-4.23V14.69z M76.63,23.03h4.64c0.55,0,1.04-0.11,1.48-0.33
			c0.44-0.22,0.78-0.54,1.03-0.94c0.25-0.41,0.37-0.89,0.37-1.44c0-0.5-0.11-0.96-0.33-1.36c-0.22-0.4-0.54-0.72-0.95-0.96
			c-0.42-0.24-0.92-0.36-1.5-0.36h-4.73V23.03z"/>
		<path class="st1" d="M97.9,26.38c-1.88,0-3.49-0.41-4.83-1.23c-1.34-0.82-2.37-1.97-3.09-3.44s-1.08-3.18-1.08-5.12
			c0-1.94,0.36-3.65,1.08-5.12c0.72-1.47,1.75-2.62,3.09-3.44c1.34-0.82,2.95-1.23,4.83-1.23s3.5,0.41,4.84,1.23
			c1.35,0.82,2.38,1.97,3.1,3.44c0.72,1.47,1.08,3.18,1.08,5.12c0,1.94-0.36,3.65-1.08,5.12s-1.75,2.62-3.1,3.44
			C101.39,25.97,99.78,26.38,97.9,26.38z M97.9,23.42c1.26,0.01,2.31-0.27,3.16-0.84s1.47-1.36,1.9-2.39
			c0.42-1.03,0.63-2.23,0.63-3.61s-0.21-2.57-0.63-3.59c-0.42-1.01-1.05-1.81-1.9-2.37s-1.89-0.86-3.16-0.88
			c-1.26-0.01-2.31,0.27-3.15,0.84c-0.84,0.57-1.47,1.36-1.89,2.39c-0.42,1.03-0.63,2.23-0.63,3.61s0.21,2.57,0.63,3.59
			c0.42,1.02,1.05,1.81,1.89,2.37C95.58,23.11,96.63,23.4,97.9,23.42z"/>
		<path class="st1" d="M110.83,21.29V7.18h3.15v14.11H110.83z M110.83,25.99V23.1h3.15v2.89H110.83z"/>
		<path class="st1" d="M124.17,25.99V7.18h2.84l6.51,13.33l6.51-13.33h2.84v18.82h-2.94V13.93l-5.78,12.06h-1.25l-5.76-12.06v12.06
			H124.17z"/>
		<path class="st1" d="M151.09,25.99v-7.71l-6.4-11.11h3.67l4.33,7.5l4.31-7.5h3.67l-6.39,11.11v7.71H151.09z"/>
		<path class="st1" d="M166.68,25.99V7.18h3.19l8.73,13.26V7.18h3.19v18.82h-3.19l-8.73-13.26v13.26H166.68z"/>
		<path class="st1" d="M184.14,25.99l5.93-18.82h4.61l5.93,18.82h-3.24l-5.38-16.88h0.71l-5.32,16.88H184.14z M187.45,21.92v-2.94
			h9.88v2.94H187.45z"/>
		<path class="st1" d="M202.97,25.99V7.18h2.84l6.51,13.33l6.51-13.33h2.84v18.82h-2.94V13.93l-5.78,12.06h-1.25l-5.76-12.06v12.06
			H202.97z"/>
		<path class="st1" d="M225.31,25.99V7.18h12.15v2.95h-9v4.64h7.44v2.95h-7.44v5.32h9v2.95H225.31z"/>
		<path class="st1" d="M246.09,25.99V7.18h3.15v18.82H246.09z"/>
		<path class="st1" d="M260.13,26.38c-1.38,0-2.62-0.24-3.72-0.72s-2.01-1.17-2.72-2.06c-0.71-0.89-1.16-1.95-1.35-3.18l3.27-0.5
			c0.28,1.12,0.85,1.98,1.72,2.59c0.87,0.61,1.87,0.92,3,0.92c0.67,0,1.3-0.1,1.9-0.31c0.59-0.21,1.07-0.51,1.44-0.91
			c0.37-0.4,0.56-0.89,0.56-1.48c0-0.26-0.04-0.5-0.13-0.73c-0.09-0.22-0.22-0.42-0.39-0.59c-0.17-0.17-0.39-0.33-0.65-0.48
			c-0.27-0.14-0.57-0.27-0.92-0.37l-4.86-1.44c-0.42-0.12-0.87-0.29-1.35-0.49s-0.94-0.49-1.37-0.85c-0.43-0.36-0.78-0.82-1.06-1.39
			c-0.27-0.56-0.41-1.26-0.41-2.08c0-1.21,0.31-2.23,0.92-3.05s1.44-1.44,2.48-1.85c1.04-0.41,2.2-0.61,3.47-0.6
			c1.29,0.01,2.44,0.23,3.45,0.66c1.01,0.43,1.86,1.06,2.53,1.88c0.68,0.82,1.16,1.81,1.44,2.97l-3.38,0.59
			c-0.14-0.66-0.41-1.23-0.8-1.69c-0.4-0.47-0.88-0.82-1.45-1.06c-0.57-0.24-1.18-0.37-1.82-0.39c-0.63-0.01-1.21,0.08-1.74,0.28
			c-0.54,0.2-0.97,0.48-1.29,0.84s-0.49,0.79-0.49,1.28c0,0.46,0.14,0.84,0.42,1.13c0.28,0.29,0.62,0.52,1.04,0.69
			s0.83,0.31,1.26,0.42l3.37,0.94c0.46,0.12,0.98,0.29,1.56,0.5c0.58,0.21,1.13,0.5,1.66,0.88s0.97,0.87,1.31,1.48
			c0.34,0.61,0.52,1.39,0.52,2.33c0,0.98-0.2,1.83-0.61,2.57c-0.4,0.74-0.95,1.35-1.64,1.84c-0.69,0.49-1.47,0.85-2.36,1.1
			C262.02,26.26,261.09,26.38,260.13,26.38z"/>
		<path class="st1" d="M275.57,25.99V7.18h3.19l8.73,13.26V7.18h3.19v18.82h-3.19l-8.73-13.26v13.26H275.57z"/>
		<path class="st1" d="M294.6,25.99V7.18h3.15v18.82H294.6z"/>
		<path class="st1" d="M301.67,25.99V7.18h3.15v8.73l7.51-8.73h3.87l-8.09,9.23l8.64,9.59h-4l-7.93-8.78v8.78H301.67z"/>
		<path class="st1" d="M325.75,26.38c-1.88,0-3.49-0.41-4.83-1.23c-1.34-0.82-2.37-1.97-3.09-3.44s-1.08-3.18-1.08-5.12
			c0-1.94,0.36-3.65,1.08-5.12c0.72-1.47,1.75-2.62,3.09-3.44c1.34-0.82,2.95-1.23,4.83-1.23s3.5,0.41,4.84,1.23
			c1.35,0.82,2.38,1.97,3.1,3.44c0.72,1.47,1.08,3.18,1.08,5.12c0,1.94-0.36,3.65-1.08,5.12s-1.75,2.62-3.1,3.44
			C329.25,25.97,327.63,26.38,325.75,26.38z M325.75,23.42c1.26,0.01,2.31-0.27,3.16-0.84s1.47-1.36,1.9-2.39
			c0.42-1.03,0.63-2.23,0.63-3.61s-0.21-2.57-0.63-3.59c-0.42-1.01-1.05-1.81-1.9-2.37s-1.89-0.86-3.16-0.88
			c-1.26-0.01-2.31,0.27-3.15,0.84c-0.84,0.57-1.47,1.36-1.89,2.39c-0.42,1.03-0.63,2.23-0.63,3.61s0.21,2.57,0.63,3.59
			c0.42,1.02,1.05,1.81,1.89,2.37C323.43,23.11,324.49,23.4,325.75,23.42z"/>
		<path class="st1" d="M337.64,25.99V7.18h3.15v15.86h8.31v2.95H337.64z"/>
		<path class="st1" d="M350.02,25.99l5.93-18.82h4.61l5.93,18.82h-3.24l-5.38-16.88h0.71l-5.32,16.88H350.02z M353.32,21.92v-2.94
			h9.88v2.94H353.32z"/>
		<path class="st1" d="M374.07,25.99V7.18h7.77c0.18,0,0.42,0.01,0.71,0.02c0.29,0.01,0.55,0.04,0.8,0.08
			c1.09,0.17,1.99,0.53,2.7,1.08s1.24,1.26,1.58,2.11c0.34,0.85,0.52,1.79,0.52,2.83c0,1.03-0.17,1.97-0.52,2.82
			c-0.35,0.85-0.88,1.55-1.59,2.11c-0.71,0.56-1.61,0.92-2.69,1.08c-0.24,0.04-0.51,0.06-0.8,0.08c-0.29,0.02-0.52,0.03-0.7,0.03
			h-4.63v6.57H374.07z M377.22,16.48h4.5c0.17,0,0.37-0.01,0.59-0.03c0.22-0.02,0.42-0.05,0.6-0.1c0.52-0.13,0.93-0.36,1.23-0.69
			c0.3-0.33,0.51-0.71,0.64-1.12c0.13-0.42,0.19-0.83,0.19-1.23s-0.06-0.81-0.19-1.23c-0.13-0.42-0.34-0.8-0.64-1.13
			c-0.3-0.33-0.71-0.56-1.23-0.69c-0.18-0.05-0.38-0.08-0.6-0.1c-0.22-0.01-0.41-0.02-0.59-0.02h-4.5V16.48z"/>
		<path class="st1" d="M390.76,25.99V7.18h12.15v2.95h-9v4.64h7.44v2.95h-7.44v5.32h9v2.95H390.76z"/>
		<path class="st1" d="M411.97,26.38c-1.38,0-2.62-0.24-3.72-0.72s-2.01-1.17-2.72-2.06c-0.71-0.89-1.16-1.95-1.35-3.18l3.27-0.5
			c0.28,1.12,0.85,1.98,1.72,2.59c0.87,0.61,1.87,0.92,3,0.92c0.67,0,1.3-0.1,1.9-0.31c0.59-0.21,1.07-0.51,1.44-0.91
			c0.37-0.4,0.56-0.89,0.56-1.48c0-0.26-0.04-0.5-0.13-0.73c-0.09-0.22-0.22-0.42-0.39-0.59c-0.17-0.17-0.39-0.33-0.65-0.48
			s-0.57-0.27-0.92-0.37l-4.86-1.44c-0.42-0.12-0.87-0.29-1.35-0.49s-0.94-0.49-1.37-0.85c-0.43-0.36-0.78-0.82-1.06-1.39
			c-0.27-0.56-0.41-1.26-0.41-2.08c0-1.21,0.31-2.23,0.92-3.05s1.44-1.44,2.48-1.85c1.04-0.41,2.2-0.61,3.47-0.6
			c1.29,0.01,2.44,0.23,3.45,0.66c1.01,0.43,1.86,1.06,2.53,1.88c0.68,0.82,1.16,1.81,1.44,2.97l-3.38,0.59
			c-0.14-0.66-0.41-1.23-0.8-1.69c-0.4-0.47-0.88-0.82-1.45-1.06c-0.57-0.24-1.18-0.37-1.82-0.39c-0.63-0.01-1.21,0.08-1.74,0.28
			c-0.54,0.2-0.97,0.48-1.29,0.84s-0.49,0.79-0.49,1.28c0,0.46,0.14,0.84,0.42,1.13c0.28,0.29,0.62,0.52,1.04,0.69
			s0.83,0.31,1.26,0.42l3.37,0.94c0.46,0.12,0.98,0.29,1.56,0.5c0.58,0.21,1.13,0.5,1.66,0.88s0.97,0.87,1.31,1.48
			c0.34,0.61,0.52,1.39,0.52,2.33c0,0.98-0.2,1.83-0.61,2.57c-0.4,0.74-0.95,1.35-1.64,1.84c-0.69,0.49-1.47,0.85-2.36,1.1
			C413.86,26.26,412.94,26.38,411.97,26.38z M407.19,1.03h2.94l1.95,2.33l1.95-2.33h2.94l-3.57,4.12h-2.64L407.19,1.03z"/>
		<path class="st1" d="M422.19,25.99V7.18h12.15v2.95h-9v4.64h7.44v2.95h-7.44v5.32h9v2.95H422.19z"/>
		<path class="st1" d="M441.71,25.99l-5.93-18.82h3.24l4.97,15.76l5.03-15.76h3.24l-5.93,18.82H441.71z"/>
		<path class="st1" d="M454.48,25.99V7.18h3.15v18.82H454.48z"/>
		<path class="st1" d="M469.5,26.38c-1.88,0-3.49-0.41-4.83-1.23c-1.34-0.82-2.37-1.97-3.09-3.44s-1.08-3.18-1.08-5.12
			c0-1.94,0.36-3.65,1.08-5.12c0.72-1.47,1.75-2.62,3.09-3.44c1.34-0.82,2.95-1.23,4.83-1.23c2.17,0,3.98,0.54,5.42,1.63
			c1.45,1.08,2.46,2.55,3.04,4.38l-3.17,0.88c-0.37-1.23-0.99-2.19-1.87-2.88s-2.02-1.04-3.42-1.04c-1.26,0-2.31,0.28-3.16,0.85
			s-1.47,1.36-1.89,2.38c-0.42,1.02-0.64,2.22-0.65,3.6c0,1.38,0.21,2.58,0.63,3.6c0.42,1.02,1.06,1.82,1.9,2.38
			c0.84,0.57,1.9,0.85,3.16,0.85c1.4,0,2.54-0.35,3.42-1.05s1.5-1.66,1.87-2.88l3.17,0.88c-0.58,1.84-1.6,3.3-3.04,4.38
			C473.48,25.84,471.67,26.38,469.5,26.38z M471.01,5.15h-2.39l2.01-4.83h2.39L471.01,5.15z"/>
		<path class="st1" d="M479.28,29.32l0.18-1.36c0.4,0.03,0.72-0.03,0.95-0.2s0.39-0.41,0.48-0.72s0.1-0.66,0.06-1.05h-1.67v-3.36
			h3.23v3.49c0,1.14-0.27,2-0.81,2.59C481.16,29.29,480.35,29.5,479.28,29.32z"/>
		<path class="st1" d="M492.7,25.99V7.18h7.46c1.27,0,2.32,0.25,3.13,0.76s1.42,1.16,1.82,1.95c0.4,0.79,0.59,1.61,0.59,2.46
			c0,1.04-0.25,1.92-0.74,2.64c-0.49,0.72-1.16,1.21-2.01,1.46V15.8c1.18,0.27,2.08,0.83,2.7,1.69s0.92,1.83,0.92,2.91
			c0,1.12-0.21,2.09-0.64,2.93c-0.43,0.84-1.06,1.49-1.9,1.96c-0.84,0.47-1.88,0.71-3.12,0.71H492.7z M495.89,14.69h4.23
			c0.45,0,0.86-0.09,1.21-0.26c0.36-0.17,0.64-0.43,0.85-0.77c0.21-0.34,0.31-0.76,0.31-1.25c0-0.65-0.21-1.2-0.63-1.63
			s-1-0.65-1.75-0.65h-4.23V14.69z M495.89,23.03h4.64c0.55,0,1.04-0.11,1.48-0.33c0.44-0.22,0.78-0.54,1.03-0.94
			c0.25-0.41,0.37-0.89,0.37-1.44c0-0.5-0.11-0.96-0.33-1.36c-0.22-0.4-0.54-0.72-0.95-0.96c-0.42-0.24-0.92-0.36-1.5-0.36h-4.73
			V23.03z"/>
		<path class="st1" d="M516.77,26.38c-1.5,0-2.82-0.31-3.95-0.91c-1.14-0.61-2.03-1.47-2.67-2.57c-0.64-1.11-0.96-2.4-0.96-3.89V7.2
			l3.19-0.03v11.75c0,0.71,0.12,1.34,0.36,1.89c0.24,0.56,0.56,1.03,0.97,1.42s0.88,0.68,1.41,0.88c0.53,0.2,1.08,0.3,1.65,0.3
			c0.58,0,1.14-0.1,1.67-0.31c0.53-0.2,1-0.5,1.4-0.89s0.73-0.86,0.97-1.42c0.24-0.56,0.35-1.18,0.35-1.88V7.18h3.19V19
			c0,1.49-0.32,2.79-0.96,3.89c-0.64,1.11-1.53,1.96-2.67,2.57C519.58,26.08,518.27,26.38,516.77,26.38z"/>
		<path class="st1" d="M532.53,25.99V10.13h-6.09V7.18h15.33v2.95h-6.09v15.86H532.53z"/>
		<path class="st1" d="M552.87,25.99v-7.71l-6.4-11.11h3.67l4.33,7.5l4.31-7.5h3.67l-6.39,11.11v7.71H552.87z"/>
		<path class="st1" d="M571.19,26.38c-1.88,0-3.49-0.41-4.83-1.23c-1.34-0.82-2.37-1.97-3.09-3.44s-1.08-3.18-1.08-5.12
			c0-1.94,0.36-3.65,1.08-5.12c0.72-1.47,1.75-2.62,3.09-3.44c1.34-0.82,2.95-1.23,4.83-1.23c1.88,0,3.5,0.41,4.84,1.23
			c1.35,0.82,2.38,1.97,3.1,3.44c0.72,1.47,1.08,3.18,1.08,5.12c0,1.94-0.36,3.65-1.08,5.12c-0.72,1.47-1.75,2.62-3.1,3.44
			S573.08,26.38,571.19,26.38z M571.19,23.42c1.26,0.01,2.32-0.27,3.16-0.84s1.47-1.36,1.89-2.39s0.63-2.23,0.63-3.61
			s-0.21-2.57-0.63-3.59c-0.42-1.01-1.05-1.81-1.89-2.37s-1.89-0.86-3.16-0.88c-1.26-0.01-2.31,0.27-3.15,0.84
			c-0.84,0.57-1.47,1.36-1.89,2.39s-0.63,2.23-0.63,3.61s0.21,2.57,0.63,3.59c0.42,1.02,1.05,1.81,1.89,2.37
			S569.93,23.4,571.19,23.42z"/>
		<path class="st1" d="M590.4,26.38c-1.5,0-2.82-0.31-3.95-0.91c-1.14-0.61-2.03-1.47-2.67-2.57c-0.64-1.11-0.96-2.4-0.96-3.89V7.2
			l3.19-0.03v11.75c0,0.71,0.12,1.34,0.36,1.89c0.24,0.56,0.56,1.03,0.97,1.42s0.88,0.68,1.41,0.88c0.53,0.2,1.08,0.3,1.65,0.3
			c0.58,0,1.14-0.1,1.67-0.31c0.53-0.2,1-0.5,1.4-0.89s0.73-0.86,0.97-1.42c0.24-0.56,0.35-1.18,0.35-1.88V7.18h3.19V19
			c0,1.49-0.32,2.79-0.96,3.89c-0.64,1.11-1.53,1.96-2.67,2.57C593.22,26.08,591.9,26.38,590.4,26.38z"/>
		<path class="st1" d="M614.83,26.38c-1.88,0-3.49-0.41-4.83-1.23c-1.34-0.82-2.37-1.97-3.09-3.44s-1.08-3.18-1.08-5.12
			c0-1.94,0.36-3.65,1.08-5.12c0.72-1.47,1.75-2.62,3.09-3.44c1.34-0.82,2.95-1.23,4.83-1.23c2.17,0,3.98,0.54,5.42,1.63
			c1.45,1.08,2.46,2.55,3.04,4.38l-3.17,0.88c-0.37-1.23-0.99-2.19-1.87-2.88s-2.02-1.04-3.42-1.04c-1.26,0-2.31,0.28-3.16,0.85
			s-1.47,1.36-1.89,2.38c-0.42,1.02-0.64,2.22-0.65,3.6c0,1.38,0.21,2.58,0.63,3.6c0.42,1.02,1.06,1.82,1.9,2.38
			c0.84,0.57,1.9,0.85,3.16,0.85c1.4,0,2.54-0.35,3.42-1.05s1.5-1.66,1.87-2.88l3.17,0.88c-0.58,1.84-1.6,3.3-3.04,4.38
			C618.8,25.84,617,26.38,614.83,26.38z"/>
		<path class="st1" d="M624.34,25.99l5.93-18.82h4.61l5.93,18.82h-3.24l-5.38-16.88h0.71l-5.32,16.88H624.34z M627.65,21.92v-2.94
			h9.88v2.94H627.65z"/>
		<path class="st1" d="M643.17,25.99V7.18h3.19l8.73,13.26V7.18h3.19v18.82h-3.19l-8.73-13.26v13.26H643.17z"/>
		<path class="st1" d="M675.12,26.38c-1.88,0-3.49-0.41-4.83-1.23c-1.34-0.82-2.37-1.97-3.09-3.44s-1.08-3.18-1.08-5.12
			c0-1.94,0.36-3.65,1.08-5.12c0.72-1.47,1.75-2.62,3.09-3.44c1.34-0.82,2.95-1.23,4.83-1.23c2.17,0,3.98,0.54,5.42,1.63
			c1.45,1.08,2.46,2.55,3.04,4.38l-3.17,0.88c-0.37-1.23-0.99-2.19-1.87-2.88s-2.02-1.04-3.42-1.04c-1.26,0-2.31,0.28-3.16,0.85
			s-1.47,1.36-1.89,2.38c-0.42,1.02-0.64,2.22-0.65,3.6c0,1.38,0.21,2.58,0.63,3.6c0.42,1.02,1.06,1.82,1.9,2.38
			c0.84,0.57,1.9,0.85,3.16,0.85c1.4,0,2.54-0.35,3.42-1.05s1.5-1.66,1.87-2.88l3.17,0.88c-0.58,1.84-1.6,3.3-3.04,4.38
			C679.1,25.84,677.29,26.38,675.12,26.38z"/>
		<path class="st1" d="M684.63,25.99l5.93-18.82h4.61l5.93,18.82h-3.24l-5.38-16.88h0.71l-5.32,16.88H684.63z M687.94,21.92v-2.94
			h9.88v2.94H687.94z"/>
		<path class="st1" d="M703.72,25.99V7.18h3.15v15.86h8.31v2.95H703.72z"/>
		<path class="st1" d="M717.67,25.99V7.18h3.15v15.86h8.31v2.95H717.67z"/>
		<path class="st1" d="M735.27,25.99V7.18h2.84l6.51,13.33l6.51-13.33h2.83v18.82h-2.94V13.93l-5.78,12.06h-1.25l-5.76-12.06v12.06
			H735.27z"/>
		<path class="st1" d="M757.61,25.99V7.18h12.15v2.95h-9v4.64h7.44v2.95h-7.44v5.32h9v2.95H757.61z"/>
		<path class="st1" d="M782.65,25.99V10.13h-6.09V7.18h15.33v2.95h-6.09v15.86H782.65z"/>
		<path class="st1" d="M793.98,25.99V7.18h7.78c0.18,0,0.42,0.01,0.71,0.02c0.29,0.01,0.55,0.04,0.8,0.08
			c1.09,0.17,1.99,0.53,2.7,1.08s1.24,1.26,1.58,2.11c0.34,0.85,0.52,1.79,0.52,2.83c0,1.53-0.39,2.85-1.16,3.95
			c-0.78,1.1-1.96,1.78-3.57,2.05l-1.35,0.12h-4.85v6.57H793.98z M797.13,16.48h4.5c0.17,0,0.37-0.01,0.59-0.03
			c0.22-0.02,0.42-0.05,0.6-0.1c0.52-0.13,0.93-0.36,1.24-0.69c0.3-0.33,0.51-0.71,0.64-1.12c0.13-0.42,0.19-0.83,0.19-1.23
			s-0.06-0.81-0.19-1.23s-0.34-0.8-0.64-1.13c-0.3-0.33-0.71-0.56-1.24-0.69c-0.18-0.05-0.38-0.08-0.6-0.1
			c-0.22-0.01-0.41-0.02-0.59-0.02h-4.5V16.48z M804.79,25.99l-3.71-7.66l3.2-0.71l4.08,8.36H804.79z"/>
		<path class="st1" d="M811.49,25.99V7.18h3.15v18.82H811.49z"/>
		<path class="st1" d="M817.25,25.99l5.93-18.82h4.61l5.93,18.82h-3.24l-5.38-16.88h0.71l-5.32,16.88H817.25z M820.56,21.92v-2.94
			h9.88v2.94H820.56z"/>
		<path class="st1" d="M836.08,25.99V7.18h3.19L848,20.44V7.18h3.19v18.82H848l-8.73-13.26v13.26H836.08z"/>
		<path class="st1" d="M854.85,25.99V7.18H858v8.73l7.51-8.73h3.87l-8.09,9.23l8.64,9.59h-4L858,17.21v8.78H854.85z"/>
		<path class="st1" d="M872.02,25.99V7.18h3.15v15.86h8.31v2.95H872.02z"/>
		<path class="st1" d="M891.08,26.35c-0.94,0-1.83-0.18-2.67-0.55c-0.84-0.37-1.56-0.88-2.18-1.56s-1.06-1.46-1.33-2.38l3.04-0.82
			c0.22,0.75,0.62,1.33,1.2,1.73c0.58,0.41,1.22,0.6,1.91,0.59c0.62,0,1.17-0.14,1.66-0.43c0.49-0.29,0.87-0.68,1.15-1.17
			c0.28-0.49,0.42-1.04,0.42-1.65c0-0.93-0.3-1.71-0.9-2.34c-0.6-0.63-1.38-0.94-2.33-0.94c-0.29,0-0.57,0.04-0.84,0.12
			c-0.27,0.08-0.54,0.19-0.79,0.33L888,14.79l6.33-5.41l0.27,0.76h-8.95V7.18h11.54v2.98l-5.08,4.89l-0.03-0.93
			c1.14,0.08,2.12,0.4,2.92,0.95s1.42,1.28,1.86,2.16c0.43,0.88,0.65,1.84,0.65,2.89c0,1.19-0.29,2.25-0.87,3.19
			c-0.58,0.94-1.36,1.68-2.33,2.23C893.33,26.07,892.26,26.35,891.08,26.35z"/>
		<path class="st1" d="M901.42,25.99v-3.23h3.23v3.23H901.42z"/>
	</g>
	<path class="st2" d="M781.55,54.78V38.91h-6.09v-2.95h15.33v2.95h-6.09v15.86H781.55z"/>
	<path class="st2" d="M792.88,54.78V35.96h7.78c0.18,0,0.42,0.01,0.71,0.02c0.29,0.01,0.55,0.04,0.8,0.08
		c1.09,0.17,1.99,0.53,2.7,1.08s1.24,1.26,1.58,2.11c0.34,0.85,0.52,1.79,0.52,2.83c0,1.53-0.39,2.85-1.16,3.95
		c-0.78,1.1-1.96,1.78-3.57,2.05l-1.35,0.12h-4.85v6.57H792.88z M796.03,45.26h4.5c0.17,0,0.37-0.01,0.59-0.03
		c0.22-0.02,0.42-0.05,0.6-0.1c0.52-0.13,0.93-0.36,1.24-0.69c0.3-0.33,0.51-0.71,0.64-1.12c0.13-0.42,0.19-0.83,0.19-1.23
		s-0.06-0.81-0.19-1.23s-0.34-0.8-0.64-1.13c-0.3-0.33-0.71-0.56-1.24-0.69c-0.18-0.05-0.38-0.08-0.6-0.1
		c-0.22-0.01-0.41-0.02-0.59-0.02h-4.5V45.26z M803.69,54.78l-3.71-7.66l3.2-0.71l4.08,8.36H803.69z"/>
	<path class="st2" d="M810.39,54.78V35.96h3.15v18.82H810.39z"/>
	<path class="st2" d="M816.15,54.78l5.93-18.82h4.61l5.93,18.82h-3.24l-5.38-16.88h0.71l-5.32,16.88H816.15z M819.46,50.7v-2.94
		h9.88v2.94H819.46z"/>
	<path class="st2" d="M834.98,54.78V35.96h3.19l8.73,13.26V35.96h3.19v18.82h-3.19l-8.73-13.26v13.26H834.98z"/>
	<path class="st2" d="M853.75,54.78V35.96h3.15v8.73l7.51-8.73h3.87l-8.09,9.23l8.64,9.59h-4L856.9,46v8.78H853.75z"/>
	<path class="st2" d="M870.92,54.78V35.96h3.15v15.86h8.31v2.95H870.92z"/>
	<path class="st2" d="M884.6,54.78V35.96h12.15v2.95h-9v4.64h7.44v2.95h-7.44v5.32h9v2.95H884.6z"/>
	<path class="st3" d="M799.66,80.92c-1.44,0-2.63-0.37-3.59-1.12c-0.95-0.75-1.62-1.76-2.01-3.03l3.11-0.74
		c0.1,0.53,0.37,0.99,0.84,1.37s0.97,0.58,1.53,0.58c0.37,0,0.75-0.1,1.16-0.29c0.41-0.2,0.71-0.51,0.91-0.95
		c0.12-0.28,0.19-0.61,0.22-1s0.03-0.84,0.03-1.35V61.71h3.19v12.66c0,0.58,0,1.1-0.01,1.54c0,0.44-0.05,0.85-0.13,1.24
		s-0.25,0.79-0.49,1.2c-0.51,0.89-1.18,1.54-2.01,1.95C801.59,80.71,800.67,80.92,799.66,80.92z"/>
	<path class="st3" d="M816.94,80.92c-1.88,0-3.49-0.41-4.83-1.23c-1.34-0.82-2.37-1.97-3.09-3.44s-1.08-3.18-1.08-5.12
		c0-1.94,0.36-3.65,1.08-5.12c0.72-1.47,1.75-2.62,3.09-3.44c1.34-0.82,2.95-1.23,4.83-1.23c1.88,0,3.5,0.41,4.84,1.23
		c1.35,0.82,2.38,1.97,3.1,3.44c0.72,1.47,1.08,3.18,1.08,5.12c0,1.94-0.36,3.65-1.08,5.12c-0.72,1.47-1.75,2.62-3.1,3.44
		S818.82,80.92,816.94,80.92z M816.94,77.95c1.26,0.01,2.32-0.27,3.16-0.84s1.47-1.36,1.89-2.39s0.63-2.23,0.63-3.61
		s-0.21-2.57-0.63-3.59c-0.42-1.01-1.05-1.81-1.89-2.37s-1.89-0.86-3.16-0.88c-1.26-0.01-2.31,0.27-3.15,0.84
		c-0.84,0.57-1.47,1.36-1.89,2.39s-0.63,2.23-0.63,3.61s0.21,2.57,0.63,3.59c0.42,1.02,1.05,1.81,1.89,2.37
		S815.67,77.93,816.94,77.95z"/>
	<path class="st3" d="M828.57,80.52V61.71h3.15v7.92h8.91v-7.92h3.14v18.82h-3.14v-7.94h-8.91v7.94H828.57z"/>
	<path class="st3" d="M847.42,80.52V61.71h3.19l8.73,13.26V61.71h3.19v18.82h-3.19l-8.73-13.26v13.26H847.42z"/>
	<path class="st3" d="M866.19,80.52V61.71h3.19l8.73,13.26V61.71h3.19v18.82h-3.19l-8.73-13.26v13.26H866.19z"/>
	<path class="st3" d="M889.53,80.52v-7.71l-6.4-11.11h3.67l4.33,7.5l4.31-7.5h3.67l-6.39,11.11v7.71H889.53z"/>
	<path class="st4" d="M818.56,109.26V90.22h6c0.16,0,0.47,0,0.93,0.01c0.47,0.01,0.92,0.04,1.35,0.09c1.49,0.19,2.75,0.73,3.78,1.61
		c1.03,0.88,1.81,2,2.35,3.35c0.53,1.36,0.8,2.84,0.8,4.46c0,1.61-0.27,3.1-0.8,4.46c-0.53,1.36-1.31,2.48-2.35,3.35
		c-1.03,0.88-2.29,1.41-3.78,1.61c-0.43,0.05-0.88,0.08-1.35,0.09c-0.47,0.01-0.78,0.01-0.94,0.01H818.56z M821.76,106.26h2.8
		c0.26,0,0.59-0.01,1-0.03c0.41-0.02,0.76-0.06,1.08-0.12c0.89-0.17,1.61-0.57,2.17-1.2c0.56-0.63,0.97-1.41,1.24-2.31
		c0.27-0.91,0.4-1.86,0.4-2.86c0-1.03-0.14-2-0.41-2.91c-0.27-0.91-0.69-1.67-1.25-2.29c-0.56-0.62-1.28-1.01-2.15-1.18
		c-0.31-0.07-0.67-0.11-1.08-0.13c-0.41-0.01-0.74-0.02-1-0.02h-2.8V106.26z"/>
	<path class="st4" d="M836.34,109.26v-0.44l9.28-15.62H837v-2.99h14.07v0.45l-9.23,15.6h9v3H836.34z M839,84h2.94l1.95,2.35
		l1.95-2.35h2.94l-3.57,4.17h-2.64L839,84z"/>
	<path class="st4" d="M862.16,109.66c-1.88,0-3.49-0.42-4.83-1.25c-1.34-0.83-2.37-2-3.09-3.49c-0.72-1.49-1.08-3.22-1.08-5.19
		c0-1.97,0.36-3.69,1.08-5.19c0.72-1.49,1.75-2.65,3.09-3.49c1.34-0.83,2.95-1.25,4.83-1.25c1.88,0,3.5,0.42,4.84,1.25
		c1.35,0.83,2.38,2,3.1,3.49c0.72,1.49,1.08,3.22,1.08,5.19c0,1.97-0.36,3.7-1.08,5.19c-0.72,1.49-1.75,2.65-3.1,3.49
		S864.04,109.66,862.16,109.66z M862.16,106.66c1.26,0.01,2.32-0.27,3.16-0.85c0.84-0.57,1.47-1.38,1.89-2.42s0.63-2.26,0.63-3.65
		s-0.21-2.6-0.63-3.63c-0.42-1.03-1.05-1.83-1.89-2.4c-0.84-0.57-1.89-0.87-3.16-0.89c-1.26-0.01-2.31,0.27-3.15,0.85
		c-0.84,0.57-1.47,1.38-1.89,2.42s-0.63,2.26-0.63,3.65s0.21,2.6,0.63,3.63c0.42,1.03,1.05,1.83,1.89,2.4
		C859.85,106.35,860.9,106.64,862.16,106.66z"/>
	<path class="st4" d="M873.79,109.26V90H877l8.79,13.58V90H889v19.26h-3.21L877,95.69v13.58H873.79z"/>
	<path class="st4" d="M892.82,109.26V90.22h3.15v19.05H892.82z"/>
	<path class="st5" d="M824.66,139.02V120.2h3.15v7.92h8.91v-7.92h3.14v18.82h-3.14v-7.94h-8.91v7.94H824.66z"/>
	<path class="st5" d="M858.62,139.02h-3.19v-13.26l-8.73,13.26h-3.19V120.2h3.19v13.26l8.73-13.26h3.19V139.02z"/>
	<path class="st5" d="M868.92,142.15v-3.14h-6.64V120.2h3.15v15.86h10.13V120.2h3.15v18.82h-6.64v3.14H868.92z"/>
	<path class="st5" d="M881.06,139.02l5.93-18.82h4.61l5.93,18.82h-3.24l-5.38-16.88h0.71l-5.32,16.88H881.06z M884.37,134.94V132
		h9.88v2.94H884.37z"/>
	<path class="st6" d="M790.67,169.76v-18.82h3.15v7.92h8.91v-7.92h3.14v18.82h-3.14v-7.94h-8.91v7.94H790.67z"/>
	<path class="st6" d="M824.63,169.76h-3.19V156.5l-8.73,13.26h-3.19v-18.82h3.19v13.26l8.73-13.26h3.19V169.76z"/>
	<path class="st6" d="M828.29,169.76v-18.82h3.15v8.73l7.51-8.73h3.87l-8.09,9.23l8.64,9.59h-4l-7.93-8.78v8.78H828.29z"/>
	<path class="st6" d="M852.38,170.15c-1.88,0-3.49-0.41-4.83-1.23c-1.34-0.82-2.37-1.97-3.09-3.44s-1.08-3.18-1.08-5.12
		c0-1.94,0.36-3.65,1.08-5.12c0.72-1.47,1.75-2.62,3.09-3.44c1.34-0.82,2.95-1.23,4.83-1.23c1.88,0,3.5,0.41,4.84,1.23
		c1.35,0.82,2.38,1.97,3.1,3.44c0.72,1.47,1.08,3.18,1.08,5.12c0,1.94-0.36,3.65-1.08,5.12c-0.72,1.47-1.75,2.62-3.1,3.44
		S854.26,170.15,852.38,170.15z M852.38,167.19c1.26,0.01,2.32-0.27,3.16-0.84s1.47-1.36,1.89-2.39s0.63-2.23,0.63-3.61
		s-0.21-2.57-0.63-3.59c-0.42-1.01-1.05-1.81-1.89-2.37s-1.89-0.86-3.16-0.88c-1.26-0.01-2.31,0.27-3.15,0.84
		c-0.84,0.57-1.47,1.36-1.89,2.39s-0.63,2.23-0.63,3.61s0.21,2.57,0.63,3.59c0.42,1.02,1.05,1.81,1.89,2.37
		S851.11,167.17,852.38,167.19z"/>
	<path class="st6" d="M862.18,169.76v-2.64c0.42,0.03,0.77-0.01,1.06-0.1c0.29-0.09,0.53-0.27,0.73-0.54
		c0.2-0.27,0.37-0.64,0.52-1.14c0.15-0.49,0.29-1.11,0.43-1.86c0.2-1.07,0.37-2.19,0.5-3.35c0.13-1.16,0.25-2.31,0.35-3.44
		c0.1-1.13,0.17-2.19,0.22-3.18c0.05-0.99,0.1-1.85,0.13-2.57h12.6v18.82h-3.15V153.9h-6.53c-0.04,0.58-0.09,1.29-0.15,2.11
		s-0.13,1.71-0.22,2.67c-0.09,0.96-0.21,1.95-0.34,2.98c-0.14,1.03-0.3,2.04-0.49,3.03c-0.17,0.91-0.38,1.72-0.63,2.44
		c-0.24,0.72-0.57,1.31-0.97,1.78c-0.41,0.47-0.93,0.78-1.58,0.93C863.99,170,863.17,169.97,862.18,169.76z"/>
	<path class="st6" d="M881.06,169.76l5.93-18.82h4.61l5.93,18.82h-3.24l-5.38-16.88h0.71l-5.32,16.88H881.06z M884.37,165.69v-2.94
		h9.88v2.94H884.37z"/>
	<path class="st1" d="M3.5,170.05L31.36,32.51h37.15l27.5,137.54H65.96l-4.92-29.04H39.38l-5.1,29.04H3.5z M42.29,122.84h15.66
		l-7.83-53.66L42.29,122.84z"/>
	<path class="st1" d="M119.16,170.05V32.51h38.43c6.31,0,12.29,0.45,17.94,1.36c5.65,0.91,10.65,2.63,15.02,5.18
		c4.37,2.55,7.8,6.17,10.29,10.87c2.49,4.7,3.73,10.9,3.73,18.59c0,5.55-0.88,10.22-2.64,14.01c-1.76,3.79-4.25,6.82-7.47,9.08
		c-3.22,2.27-7.07,3.79-11.56,4.58c5.71,0.68,10.5,2.41,14.39,5.18c3.88,2.78,6.83,6.48,8.83,11.12c2,4.64,3,10.25,3,16.81
		c0,7.13-1,13.27-3,18.42c-2,5.15-4.89,9.37-8.65,12.65c-3.76,3.28-8.41,5.72-13.93,7.3c-5.53,1.59-11.87,2.38-19.03,2.38H119.16z
		 M151.76,87.52h6.37c4.98,0,8.74-0.71,11.29-2.12c2.55-1.41,4.28-3.48,5.19-6.2c0.91-2.72,1.37-6,1.37-9.85
		c0-3.62-0.7-6.65-2.09-9.08c-1.4-2.43-3.46-4.27-6.19-5.52c-2.73-1.24-6.16-1.87-10.29-1.87h-5.65V87.52z M151.76,148.82h6.92
		c7.16,0,12.11-1.7,14.84-5.09c2.73-3.4,4.1-8.38,4.1-14.94c0-5.21-0.61-9.34-1.82-12.4c-1.21-3.06-3.22-5.29-6.01-6.71
		c-2.79-1.41-6.56-2.12-11.29-2.12h-6.74V148.82z"/>
	<path class="st1" d="M276.7,172.09c-11.05,0-19.79-1.81-26.22-5.43c-6.44-3.62-11.05-8.83-13.84-15.62
		c-2.79-6.79-4.19-14.88-4.19-24.28V75.64c0-9.51,1.39-17.6,4.19-24.28c2.79-6.68,7.4-11.8,13.84-15.37
		c6.43-3.57,15.18-5.35,26.22-5.35c11.17,0,20,1.78,26.5,5.35c6.49,3.57,11.14,8.69,13.93,15.37c2.79,6.68,4.19,14.77,4.19,24.28
		v51.11c0,9.4-1.4,17.49-4.19,24.28c-2.79,6.79-7.44,12-13.93,15.62C296.7,170.28,287.87,172.09,276.7,172.09z M276.7,150.52
		c3.4,0,5.89-0.79,7.47-2.38c1.58-1.58,2.61-3.62,3.1-6.11c0.48-2.49,0.73-5.04,0.73-7.64V68.17c0-2.72-0.24-5.29-0.73-7.73
		c-0.49-2.43-1.52-4.44-3.1-6.03c-1.58-1.58-4.07-2.38-7.47-2.38c-3.16,0-5.53,0.79-7.1,2.38c-1.58,1.59-2.61,3.6-3.1,6.03
		c-0.49,2.44-0.73,5.01-0.73,7.73v66.22c0,2.61,0.21,5.15,0.64,7.64c0.42,2.49,1.39,4.53,2.91,6.11
		C270.84,149.73,273.3,150.52,276.7,150.52z"/>
	<path class="st1" d="M392,172.09c-11.29,0-20.12-1.73-26.5-5.18c-6.37-3.45-10.84-8.49-13.39-15.11
		c-2.55-6.62-3.82-14.74-3.82-24.37V32.51h32.23v99.51c0,2.83,0.24,5.66,0.73,8.49c0.48,2.83,1.55,5.15,3.19,6.96
		c1.64,1.81,4.16,2.72,7.56,2.72c3.52,0,6.07-0.9,7.65-2.72c1.58-1.81,2.58-4.13,3-6.96c0.42-2.83,0.64-5.66,0.64-8.49V32.51h32.42
		v94.92c0,9.62-1.31,17.74-3.92,24.37c-2.61,6.62-7.07,11.66-13.39,15.11C412.09,170.36,403.29,172.09,392,172.09z"/>
	<path class="st1" d="M477.97,170.05V55.09h-22.22V32.51h77.04v22.58h-22.04v114.96H477.97z"/>
</g>
<g id="Layer_2">
</g>
</svg>
