<?xml version="1.0" encoding="UTF-8"?>
<svg id="Layer_1" data-name="Layer 1" xmlns="http://www.w3.org/2000/svg" viewBox="0 0 902.87 172.54">
  <defs>
    <style>
      .cls-1 {
        opacity: .7;
      }

      .cls-1, .cls-2, .cls-3, .cls-4, .cls-5, .cls-6 {
        fill: #111;
      }

      .cls-2 {
        opacity: .8;
      }

      .cls-3 {
        opacity: .5;
      }

      .cls-7 {
        fill: none;
        stroke: #000;
        stroke-miterlimit: 10;
        stroke-width: 2px;
      }

      .cls-5 {
        opacity: .4;
      }

      .cls-6 {
        opacity: .6;
      }
    </style>
  </defs>
  <path class="cls-4" d="m43.55,172.54c-10.99,0-19.69-1.87-26.08-5.62-6.39-3.75-10.9-9-13.53-15.77-2.63-6.77-3.94-14.74-3.94-23.91v-48.99c0-9.4,1.31-17.48,3.94-24.25,2.63-6.77,7.14-12,13.53-15.69,6.39-3.69,15.08-5.54,26.08-5.54s19.15,1.65,25.18,4.95c6.03,3.3,10.31,7.91,12.81,13.84,2.51,5.93,3.76,12.75,3.76,20.47v11.74h-31.36v-13.59c0-2.68-.15-5.26-.45-7.72-.3-2.46-1.17-4.5-2.6-6.12-1.43-1.62-3.88-2.43-7.35-2.43s-5.82.84-7.44,2.52c-1.61,1.68-2.63,3.77-3.05,6.29-.42,2.52-.63,5.17-.63,7.97v63.93c0,3.02.27,5.79.81,8.31s1.61,4.53,3.23,6.04c1.61,1.51,3.97,2.26,7.08,2.26,3.34,0,5.74-.81,7.17-2.43,1.43-1.62,2.33-3.72,2.69-6.29.36-2.57.54-5.2.54-7.89v-14.26h31.36v11.75c0,7.72-1.23,14.63-3.67,20.72-2.45,6.1-6.69,10.91-12.72,14.43-6.03,3.52-14.49,5.29-25.36,5.29Z"/>
  <path class="cls-4" d="m144.45,172.54c-10.87,0-19.48-1.79-25.81-5.37-6.33-3.58-10.87-8.73-13.62-15.44-2.75-6.71-4.12-14.71-4.12-23.99v-50.5c0-9.4,1.37-17.39,4.12-23.99,2.75-6.6,7.29-11.66,13.62-15.18,6.33-3.52,14.93-5.29,25.81-5.29s19.68,1.76,26.08,5.29c6.39,3.52,10.96,8.59,13.71,15.18,2.75,6.6,4.12,14.6,4.12,23.99v50.5c0,9.29-1.38,17.28-4.12,23.99-2.75,6.71-7.32,11.86-13.71,15.44-6.39,3.58-15.09,5.37-26.08,5.37Zm0-21.31c3.34,0,5.79-.78,7.35-2.35,1.55-1.57,2.57-3.58,3.05-6.04.48-2.46.72-4.98.72-7.55v-65.44c0-2.68-.24-5.23-.72-7.63-.48-2.4-1.5-4.39-3.05-5.96-1.55-1.56-4-2.35-7.35-2.35-3.11,0-5.44.78-6.99,2.35-1.55,1.57-2.57,3.55-3.05,5.96-.48,2.41-.72,4.95-.72,7.63v65.44c0,2.57.21,5.09.63,7.55.42,2.46,1.37,4.48,2.87,6.04,1.49,1.57,3.91,2.35,7.26,2.35Z"/>
  <path class="cls-4" d="m207.89,170.53V34.63h22.58l29.75,65.44V34.63h26.52v135.91h-21.69l-29.75-70.47v70.47h-27.42Z"/>
  <path class="cls-4" d="m321.52,170.53V56.94h-21.87v-22.32h75.81v22.32h-21.69v113.59h-32.26Z"/>
  <path class="cls-4" d="m374.75,170.53l27.42-135.91h36.56l27.06,135.91h-29.57l-4.84-28.69h-21.33l-5.02,28.69h-30.29Zm38.17-46.64h15.41l-7.71-53.02-7.71,53.02Z"/>
  <path class="cls-4" d="m519.74,172.54c-10.99,0-19.69-1.87-26.08-5.62-6.39-3.75-10.9-9-13.53-15.77-2.63-6.77-3.94-14.74-3.94-23.91v-48.99c0-9.4,1.31-17.48,3.94-24.25,2.63-6.77,7.14-12,13.53-15.69,6.39-3.69,15.08-5.54,26.08-5.54s19.15,1.65,25.18,4.95c6.03,3.3,10.31,7.91,12.81,13.84,2.51,5.93,3.76,12.75,3.76,20.47v11.74h-31.36v-13.59c0-2.68-.15-5.26-.45-7.72-.3-2.46-1.17-4.5-2.6-6.12-1.43-1.62-3.88-2.43-7.35-2.43s-5.83.84-7.44,2.52c-1.61,1.68-2.63,3.77-3.05,6.29-.42,2.52-.63,5.17-.63,7.97v63.93c0,3.02.27,5.79.81,8.31s1.61,4.53,3.23,6.04c1.61,1.51,3.97,2.26,7.08,2.26,3.34,0,5.73-.81,7.17-2.43,1.43-1.62,2.33-3.72,2.69-6.29.36-2.57.54-5.2.54-7.89v-14.26h31.36v11.75c0,7.72-1.23,14.63-3.67,20.72-2.45,6.1-6.69,10.91-12.72,14.43-6.04,3.52-14.49,5.29-25.36,5.29Z"/>
  <path class="cls-4" d="m592.14,170.53V56.94h-21.86v-22.32h75.81v22.32h-21.69v113.59h-32.26Z"/>
  <path class="cls-7" d="m704.15,170.53l2.51-135.91h34.41l15.95,79.03,17.21-79.03h33.16l2.51,135.91h-22.76l-2.69-90.44-16.85,90.44h-20.25l-17.92-91.11-2.15,91.11h-23.12Z"/>
  <path class="cls-7" d="m830.86,170.53V34.63h65.24v20.47h-33.16v33.72h25.27v20.81h-25.27v40.6h33.51v20.3h-65.6Z"/>
  <g>
    <path class="cls-4" d="m7.49,26.07c-1.32,0-2.48-.19-3.47-.58s-1.82-.89-2.48-1.5S.36,22.72,0,22.04l2.69-1.83c.21.48.51.94.91,1.38s.93.8,1.58,1.08,1.46.42,2.43.42,1.69-.14,2.29-.42c.59-.28,1.03-.64,1.31-1.1.28-.45.42-.94.42-1.48,0-.66-.18-1.17-.55-1.54s-.85-.61-1.44-.76c-.59-.14-1.22-.22-1.89-.24-.61-.02-1.05-.03-1.32-.04-.27,0-.45-.01-.54-.01h-.25v-2.98h.49c.23,0,.47,0,.72,0,.25,0,.45-.01.61-.02.99-.04,1.81-.27,2.45-.69.64-.42.96-1.04.96-1.86s-.3-1.42-.9-1.87c-.6-.45-1.39-.68-2.37-.68-.92,0-1.74.2-2.44.61-.7.41-1.23.89-1.59,1.45l-2.21-2.25c.64-.78,1.5-1.43,2.59-1.97,1.09-.54,2.34-.8,3.73-.8.82,0,1.62.11,2.39.32.78.21,1.47.54,2.09.97s1.11.99,1.48,1.67c.37.68.55,1.49.55,2.43,0,.86-.16,1.66-.49,2.38-.33.73-.78,1.32-1.37,1.78.83.33,1.47.84,1.93,1.52.46.68.69,1.54.69,2.57,0,1.22-.33,2.27-.99,3.16-.66.89-1.56,1.57-2.69,2.06-1.13.48-2.39.73-3.8.73Z"/>
    <path class="cls-4" d="m16.79,28.81v-6.09c.61,0,1.12-.15,1.53-.46.41-.3.74-.73.99-1.27.25-.54.44-1.17.58-1.89.14-.72.25-1.48.33-2.29.1-1.07.18-2.12.25-3.16s.14-2.1.2-3.21c.07-1.11.14-2.32.23-3.61l12.27.03v15.86h1.41v6.09h-3.14v-3.14h-11.5v3.14h-3.15Zm4.9-6.09h8.32v-12.91l-6.25-.03c-.06.91-.11,1.77-.15,2.55-.04.79-.09,1.59-.14,2.4s-.13,1.69-.23,2.65c-.09.94-.18,1.72-.28,2.35s-.25,1.17-.44,1.63c-.19.46-.47.91-.84,1.35Z"/>
    <path class="cls-4" d="m37.45,25.68V6.86h7.77c.18,0,.42,0,.71.02.29.01.55.04.8.08,1.09.17,1.99.53,2.7,1.08s1.24,1.26,1.58,2.11c.34.85.52,1.79.52,2.83s-.17,1.97-.52,2.82c-.35.85-.88,1.55-1.59,2.11-.71.56-1.61.92-2.69,1.08-.24.04-.51.06-.8.08-.29.02-.52.03-.7.03h-4.63v6.57h-3.15Zm3.15-9.51h4.5c.17,0,.37,0,.59-.03.22-.02.42-.05.6-.1.52-.13.93-.36,1.23-.69.3-.33.51-.71.64-1.12.13-.42.19-.83.19-1.23s-.06-.81-.19-1.23c-.13-.42-.34-.8-.64-1.13-.3-.33-.71-.56-1.23-.69-.18-.05-.38-.08-.6-.1-.22-.01-.41-.02-.59-.02h-4.5v6.35Z"/>
    <path class="cls-4" d="m52.83,25.68l5.93-18.82h4.61l5.93,18.82h-3.24l-5.38-16.88h.71l-5.32,16.88h-3.24Zm3.31-4.08v-2.94h9.88v2.94h-9.88Z"/>
    <path class="cls-4" d="m71.66,25.68V6.86h7.46c1.27,0,2.31.25,3.13.76.81.51,1.42,1.16,1.82,1.95.4.79.59,1.61.59,2.46,0,1.04-.25,1.92-.74,2.64s-1.16,1.21-2.01,1.46v-.65c1.18.27,2.08.83,2.7,1.69.61.85.92,1.83.92,2.91s-.21,2.09-.64,2.93c-.43.84-1.06,1.49-1.9,1.96-.84.47-1.88.71-3.12.71h-8.22Zm3.19-11.3h4.23c.45,0,.86-.09,1.22-.26.36-.17.64-.43.85-.77.21-.34.31-.76.31-1.25,0-.65-.21-1.2-.63-1.63-.42-.44-1-.65-1.75-.65h-4.23v4.57Zm0,8.34h4.64c.55,0,1.04-.11,1.48-.33.44-.22.78-.54,1.03-.94.25-.41.37-.89.37-1.44,0-.5-.11-.96-.33-1.36-.22-.4-.54-.72-.95-.96-.42-.24-.92-.36-1.5-.36h-4.73v5.4Z"/>
    <path class="cls-4" d="m96.11,26.07c-1.88,0-3.49-.41-4.83-1.23-1.34-.82-2.37-1.97-3.09-3.44s-1.08-3.18-1.08-5.12.36-3.65,1.08-5.12c.72-1.47,1.75-2.62,3.09-3.44,1.34-.82,2.95-1.23,4.83-1.23s3.5.41,4.84,1.23c1.35.82,2.38,1.97,3.1,3.44.72,1.47,1.08,3.18,1.08,5.12s-.36,3.65-1.08,5.12-1.75,2.62-3.1,3.44c-1.35.82-2.96,1.23-4.84,1.23Zm0-2.97c1.26,0,2.31-.27,3.16-.84s1.47-1.36,1.9-2.39c.42-1.03.63-2.23.63-3.61s-.21-2.57-.63-3.59c-.42-1.01-1.05-1.81-1.9-2.37s-1.89-.86-3.16-.88c-1.26,0-2.31.27-3.15.84-.84.57-1.47,1.36-1.89,2.39-.42,1.03-.63,2.23-.63,3.61s.21,2.57.63,3.59c.42,1.02,1.05,1.81,1.89,2.37.84.57,1.89.86,3.16.88Z"/>
    <path class="cls-4" d="m109.05,20.97V6.86h3.15v14.11h-3.15Zm0,4.7v-2.89h3.15v2.89h-3.15Z"/>
    <path class="cls-4" d="m122.39,25.68V6.86h2.84l6.51,13.33,6.51-13.33h2.84v18.82h-2.94v-12.06l-5.78,12.06h-1.25l-5.76-12.06v12.06h-2.95Z"/>
    <path class="cls-4" d="m149.31,25.68v-7.71l-6.4-11.11h3.67l4.33,7.5,4.31-7.5h3.67l-6.39,11.11v7.71h-3.19Z"/>
    <path class="cls-4" d="m164.9,25.68V6.86h3.19l8.73,13.26V6.86h3.19v18.82h-3.19l-8.73-13.26v13.26h-3.19Z"/>
    <path class="cls-4" d="m182.36,25.68l5.93-18.82h4.61l5.93,18.82h-3.24l-5.38-16.88h.71l-5.32,16.88h-3.24Zm3.31-4.08v-2.94h9.88v2.94h-9.88Z"/>
    <path class="cls-4" d="m201.19,25.68V6.86h2.84l6.51,13.33,6.51-13.33h2.84v18.82h-2.94v-12.06l-5.78,12.06h-1.25l-5.76-12.06v12.06h-2.95Z"/>
    <path class="cls-4" d="m223.53,25.68V6.86h12.15v2.95h-9v4.64h7.44v2.95h-7.44v5.32h9v2.95h-12.15Z"/>
    <path class="cls-4" d="m244.31,25.68V6.86h3.15v18.82h-3.15Z"/>
    <path class="cls-4" d="m258.34,26.07c-1.38,0-2.62-.24-3.72-.72s-2.01-1.17-2.72-2.06c-.71-.89-1.16-1.95-1.35-3.18l3.27-.5c.28,1.12.85,1.98,1.72,2.59.87.61,1.87.92,3,.92.67,0,1.3-.1,1.9-.31.59-.21,1.07-.51,1.44-.91.37-.4.56-.89.56-1.48,0-.26-.04-.5-.13-.73-.09-.22-.22-.42-.39-.59-.17-.17-.39-.33-.65-.48s-.57-.27-.92-.37l-4.86-1.44c-.42-.12-.87-.29-1.35-.49s-.94-.49-1.37-.85c-.43-.36-.78-.82-1.06-1.39-.27-.56-.41-1.26-.41-2.08,0-1.21.31-2.23.92-3.05s1.44-1.44,2.48-1.85c1.04-.41,2.2-.61,3.47-.6,1.29,0,2.44.23,3.45.66,1.01.43,1.86,1.06,2.53,1.88.68.82,1.16,1.81,1.44,2.97l-3.38.59c-.14-.66-.41-1.23-.8-1.69-.4-.47-.88-.82-1.45-1.06-.57-.24-1.18-.37-1.82-.39-.63,0-1.21.08-1.74.28-.54.2-.97.48-1.29.84s-.49.79-.49,1.28c0,.46.14.84.42,1.13.28.29.62.52,1.04.69s.83.31,1.26.42l3.37.94c.46.12.98.29,1.56.5.58.21,1.13.5,1.66.88s.97.87,1.31,1.48c.34.61.52,1.39.52,2.33s-.2,1.83-.61,2.57c-.4.74-.95,1.35-1.64,1.84-.69.49-1.47.85-2.36,1.1-.88.24-1.81.37-2.78.37Z"/>
    <path class="cls-4" d="m273.79,25.68V6.86h3.19l8.73,13.26V6.86h3.19v18.82h-3.19l-8.73-13.26v13.26h-3.19Z"/>
    <path class="cls-4" d="m292.82,25.68V6.86h3.15v18.82h-3.15Z"/>
    <path class="cls-4" d="m299.88,25.68V6.86h3.15v8.73l7.51-8.73h3.87l-8.09,9.23,8.64,9.59h-4l-7.93-8.78v8.78h-3.15Z"/>
    <path class="cls-4" d="m323.97,26.07c-1.88,0-3.49-.41-4.83-1.23-1.34-.82-2.37-1.97-3.09-3.44s-1.08-3.18-1.08-5.12.36-3.65,1.08-5.12c.72-1.47,1.75-2.62,3.09-3.44,1.34-.82,2.95-1.23,4.83-1.23s3.5.41,4.84,1.23c1.35.82,2.38,1.97,3.1,3.44.72,1.47,1.08,3.18,1.08,5.12s-.36,3.65-1.08,5.12-1.75,2.62-3.1,3.44c-1.35.82-2.96,1.23-4.84,1.23Zm0-2.97c1.26,0,2.31-.27,3.16-.84s1.47-1.36,1.9-2.39c.42-1.03.63-2.23.63-3.61s-.21-2.57-.63-3.59c-.42-1.01-1.05-1.81-1.9-2.37s-1.89-.86-3.16-.88c-1.26,0-2.31.27-3.15.84-.84.57-1.47,1.36-1.89,2.39-.42,1.03-.63,2.23-.63,3.61s.21,2.57.63,3.59c.42,1.02,1.05,1.81,1.89,2.37.84.57,1.89.86,3.16.88Z"/>
    <path class="cls-4" d="m335.86,25.68V6.86h3.15v15.86h8.31v2.95h-11.46Z"/>
    <path class="cls-4" d="m348.23,25.68l5.93-18.82h4.61l5.93,18.82h-3.24l-5.38-16.88h.71l-5.32,16.88h-3.24Zm3.31-4.08v-2.94h9.88v2.94h-9.88Z"/>
    <path class="cls-4" d="m372.29,25.68V6.86h7.77c.18,0,.42,0,.71.02.29.01.55.04.8.08,1.09.17,1.99.53,2.7,1.08s1.24,1.26,1.58,2.11c.34.85.52,1.79.52,2.83s-.17,1.97-.52,2.82c-.35.85-.88,1.55-1.59,2.11-.71.56-1.61.92-2.69,1.08-.24.04-.51.06-.8.08-.29.02-.52.03-.7.03h-4.63v6.57h-3.15Zm3.15-9.51h4.5c.17,0,.37,0,.59-.03.22-.02.42-.05.6-.1.52-.13.93-.36,1.23-.69.3-.33.51-.71.64-1.12.13-.42.19-.83.19-1.23s-.06-.81-.19-1.23c-.13-.42-.34-.8-.64-1.13-.3-.33-.71-.56-1.23-.69-.18-.05-.38-.08-.6-.1-.22-.01-.41-.02-.59-.02h-4.5v6.35Z"/>
    <path class="cls-4" d="m388.98,25.68V6.86h12.15v2.95h-9v4.64h7.44v2.95h-7.44v5.32h9v2.95h-12.15Z"/>
    <path class="cls-4" d="m410.19,26.07c-1.38,0-2.62-.24-3.72-.72s-2.01-1.17-2.72-2.06c-.71-.89-1.16-1.95-1.35-3.18l3.27-.5c.28,1.12.85,1.98,1.72,2.59.87.61,1.87.92,3,.92.67,0,1.3-.1,1.9-.31.59-.21,1.07-.51,1.44-.91.37-.4.56-.89.56-1.48,0-.26-.04-.5-.13-.73-.09-.22-.22-.42-.39-.59-.17-.17-.39-.33-.65-.48s-.57-.27-.92-.37l-4.86-1.44c-.42-.12-.87-.29-1.35-.49s-.94-.49-1.37-.85c-.43-.36-.78-.82-1.06-1.39-.27-.56-.41-1.26-.41-2.08,0-1.21.31-2.23.92-3.05s1.44-1.44,2.48-1.85c1.04-.41,2.2-.61,3.47-.6,1.29,0,2.44.23,3.45.66,1.01.43,1.86,1.06,2.53,1.88.68.82,1.16,1.81,1.44,2.97l-3.38.59c-.14-.66-.41-1.23-.8-1.69-.4-.47-.88-.82-1.45-1.06-.57-.24-1.18-.37-1.82-.39-.63,0-1.21.08-1.74.28-.54.2-.97.48-1.29.84s-.49.79-.49,1.28c0,.46.14.84.42,1.13.28.29.62.52,1.04.69s.83.31,1.26.42l3.37.94c.46.12.98.29,1.56.5.58.21,1.13.5,1.66.88s.97.87,1.31,1.48c.34.61.52,1.39.52,2.33s-.2,1.83-.61,2.57c-.4.74-.95,1.35-1.64,1.84-.69.49-1.47.85-2.36,1.1-.88.24-1.81.37-2.78.37Zm-4.78-25.35h2.94l1.95,2.33,1.95-2.33h2.94l-3.57,4.12h-2.64l-3.57-4.12Z"/>
    <path class="cls-4" d="m420.4,25.68V6.86h12.15v2.95h-9v4.64h7.44v2.95h-7.44v5.32h9v2.95h-12.15Z"/>
    <path class="cls-4" d="m439.93,25.68l-5.93-18.82h3.24l4.97,15.76,5.03-15.76h3.24l-5.93,18.82h-4.61Z"/>
    <path class="cls-4" d="m452.69,25.68V6.86h3.15v18.82h-3.15Z"/>
    <path class="cls-4" d="m467.72,26.07c-1.88,0-3.49-.41-4.83-1.23-1.34-.82-2.37-1.97-3.09-3.44s-1.08-3.18-1.08-5.12.36-3.65,1.08-5.12c.72-1.47,1.75-2.62,3.09-3.44,1.34-.82,2.95-1.23,4.83-1.23,2.17,0,3.98.54,5.42,1.63,1.45,1.08,2.46,2.55,3.04,4.38l-3.17.88c-.37-1.23-.99-2.19-1.87-2.88s-2.02-1.04-3.42-1.04c-1.26,0-2.31.28-3.16.85s-1.47,1.36-1.89,2.38c-.42,1.02-.64,2.22-.65,3.6,0,1.38.21,2.58.63,3.6.42,1.02,1.06,1.82,1.9,2.38.84.57,1.9.85,3.16.85,1.4,0,2.54-.35,3.42-1.05s1.5-1.66,1.87-2.88l3.17.88c-.58,1.84-1.6,3.3-3.04,4.38-1.45,1.08-3.25,1.63-5.42,1.63Zm1.5-21.23h-2.39l2.01-4.83h2.39l-2.01,4.83Z"/>
    <path class="cls-4" d="m477.5,29.01l.18-1.36c.4.03.72-.03.95-.2s.39-.41.48-.72.1-.66.06-1.05h-1.67v-3.36h3.23v3.49c0,1.14-.27,2-.81,2.59-.54.58-1.35.79-2.42.61Z"/>
    <path class="cls-4" d="m490.92,25.68V6.86h7.46c1.27,0,2.32.25,3.13.76s1.42,1.16,1.82,1.95c.4.79.59,1.61.59,2.46,0,1.04-.25,1.92-.74,2.64-.49.72-1.16,1.21-2.01,1.46v-.65c1.18.27,2.08.83,2.7,1.69s.92,1.83.92,2.91-.21,2.09-.64,2.93c-.43.84-1.06,1.49-1.9,1.96-.84.47-1.88.71-3.12.71h-8.22Zm3.19-11.3h4.23c.45,0,.86-.09,1.21-.26.36-.17.64-.43.85-.77.21-.34.31-.76.31-1.25,0-.65-.21-1.2-.63-1.63s-1-.65-1.75-.65h-4.23v4.57Zm0,8.34h4.64c.55,0,1.04-.11,1.48-.33.44-.22.78-.54,1.03-.94.25-.41.37-.89.37-1.44,0-.5-.11-.96-.33-1.36-.22-.4-.54-.72-.95-.96-.42-.24-.92-.36-1.5-.36h-4.73v5.4Z"/>
    <path class="cls-4" d="m514.99,26.07c-1.5,0-2.82-.31-3.95-.91-1.14-.61-2.03-1.47-2.67-2.57-.64-1.11-.96-2.4-.96-3.89V6.89l3.19-.03v11.75c0,.71.12,1.34.36,1.89.24.56.56,1.03.97,1.42s.88.68,1.41.88c.53.2,1.08.3,1.65.3s1.14-.1,1.67-.31c.53-.2,1-.5,1.4-.89s.73-.86.97-1.42c.24-.56.35-1.18.35-1.88V6.86h3.19v11.83c0,1.49-.32,2.79-.96,3.89-.64,1.11-1.53,1.96-2.67,2.57-1.14.61-2.45.91-3.95.91Z"/>
    <path class="cls-4" d="m530.75,25.68v-15.86h-6.09v-2.95h15.33v2.95h-6.09v15.86h-3.15Z"/>
    <path class="cls-4" d="m551.09,25.68v-7.71l-6.4-11.11h3.67l4.33,7.5,4.31-7.5h3.67l-6.39,11.11v7.71h-3.19Z"/>
    <path class="cls-4" d="m569.41,26.07c-1.88,0-3.49-.41-4.83-1.23-1.34-.82-2.37-1.97-3.09-3.44s-1.08-3.18-1.08-5.12.36-3.65,1.08-5.12c.72-1.47,1.75-2.62,3.09-3.44,1.34-.82,2.95-1.23,4.83-1.23s3.5.41,4.84,1.23c1.35.82,2.38,1.97,3.1,3.44.72,1.47,1.08,3.18,1.08,5.12s-.36,3.65-1.08,5.12c-.72,1.47-1.75,2.62-3.1,3.44s-2.96,1.23-4.84,1.23Zm0-2.97c1.26,0,2.32-.27,3.16-.84s1.47-1.36,1.89-2.39.63-2.23.63-3.61-.21-2.57-.63-3.59c-.42-1.01-1.05-1.81-1.89-2.37s-1.89-.86-3.16-.88c-1.26,0-2.31.27-3.15.84-.84.57-1.47,1.36-1.89,2.39s-.63,2.23-.63,3.61.21,2.57.63,3.59c.42,1.02,1.05,1.81,1.89,2.37s1.89.86,3.16.88Z"/>
    <path class="cls-4" d="m588.62,26.07c-1.5,0-2.82-.31-3.95-.91-1.14-.61-2.03-1.47-2.67-2.57-.64-1.11-.96-2.4-.96-3.89V6.89l3.19-.03v11.75c0,.71.12,1.34.36,1.89.24.56.56,1.03.97,1.42s.88.68,1.41.88c.53.2,1.08.3,1.65.3s1.14-.1,1.67-.31c.53-.2,1-.5,1.4-.89s.73-.86.97-1.42c.24-.56.35-1.18.35-1.88V6.86h3.19v11.83c0,1.49-.32,2.79-.96,3.89-.64,1.11-1.53,1.96-2.67,2.57-1.14.61-2.45.91-3.95.91Z"/>
    <path class="cls-4" d="m613.04,26.07c-1.88,0-3.49-.41-4.83-1.23-1.34-.82-2.37-1.97-3.09-3.44s-1.08-3.18-1.08-5.12.36-3.65,1.08-5.12c.72-1.47,1.75-2.62,3.09-3.44,1.34-.82,2.95-1.23,4.83-1.23,2.17,0,3.98.54,5.42,1.63,1.45,1.08,2.46,2.55,3.04,4.38l-3.17.88c-.37-1.23-.99-2.19-1.87-2.88s-2.02-1.04-3.42-1.04c-1.26,0-2.31.28-3.16.85s-1.47,1.36-1.89,2.38c-.42,1.02-.64,2.22-.65,3.6,0,1.38.21,2.58.63,3.6.42,1.02,1.06,1.82,1.9,2.38.84.57,1.9.85,3.16.85,1.4,0,2.54-.35,3.42-1.05s1.5-1.66,1.87-2.88l3.17.88c-.58,1.84-1.6,3.3-3.04,4.38-1.45,1.08-3.25,1.63-5.42,1.63Z"/>
    <path class="cls-4" d="m622.56,25.68l5.93-18.82h4.61l5.93,18.82h-3.24l-5.38-16.88h.71l-5.32,16.88h-3.24Zm3.31-4.08v-2.94h9.88v2.94h-9.88Z"/>
    <path class="cls-4" d="m641.39,25.68V6.86h3.19l8.73,13.26V6.86h3.19v18.82h-3.19l-8.73-13.26v13.26h-3.19Z"/>
    <path class="cls-4" d="m673.34,26.07c-1.88,0-3.49-.41-4.83-1.23-1.34-.82-2.37-1.97-3.09-3.44s-1.08-3.18-1.08-5.12.36-3.65,1.08-5.12c.72-1.47,1.75-2.62,3.09-3.44,1.34-.82,2.95-1.23,4.83-1.23,2.17,0,3.98.54,5.42,1.63,1.45,1.08,2.46,2.55,3.04,4.38l-3.17.88c-.37-1.23-.99-2.19-1.87-2.88s-2.02-1.04-3.42-1.04c-1.26,0-2.31.28-3.16.85s-1.47,1.36-1.89,2.38c-.42,1.02-.64,2.22-.65,3.6,0,1.38.21,2.58.63,3.6.42,1.02,1.06,1.82,1.9,2.38.84.57,1.9.85,3.16.85,1.4,0,2.54-.35,3.42-1.05s1.5-1.66,1.87-2.88l3.17.88c-.58,1.84-1.6,3.3-3.04,4.38-1.45,1.08-3.25,1.63-5.42,1.63Z"/>
    <path class="cls-4" d="m682.85,25.68l5.93-18.82h4.61l5.93,18.82h-3.24l-5.38-16.88h.71l-5.32,16.88h-3.24Zm3.31-4.08v-2.94h9.88v2.94h-9.88Z"/>
    <path class="cls-4" d="m701.94,25.68V6.86h3.15v15.86h8.31v2.95h-11.46Z"/>
    <path class="cls-4" d="m715.88,25.68V6.86h3.15v15.86h8.31v2.95h-11.46Z"/>
    <path class="cls-4" d="m733.49,25.68V6.86h2.84l6.51,13.33,6.51-13.33h2.83v18.82h-2.94v-12.06l-5.78,12.06h-1.25l-5.76-12.06v12.06h-2.95Z"/>
    <path class="cls-4" d="m755.83,25.68V6.86h12.15v2.95h-9v4.64h7.44v2.95h-7.44v5.32h9v2.95h-12.15Z"/>
    <path class="cls-4" d="m780.87,25.68v-15.86h-6.09v-2.95h15.33v2.95h-6.09v15.86h-3.15Z"/>
    <path class="cls-4" d="m792.2,25.68V6.86h7.78c.18,0,.42,0,.71.02.29.01.55.04.8.08,1.09.17,1.99.53,2.7,1.08s1.24,1.26,1.58,2.11c.34.85.52,1.79.52,2.83,0,1.53-.39,2.85-1.16,3.95-.78,1.1-1.96,1.78-3.57,2.05l-1.35.12h-4.85v6.57h-3.15Zm3.15-9.51h4.5c.17,0,.37,0,.59-.03.22-.02.42-.05.6-.1.52-.13.93-.36,1.24-.69.3-.33.51-.71.64-1.12.13-.42.19-.83.19-1.23s-.06-.81-.19-1.23-.34-.8-.64-1.13c-.3-.33-.71-.56-1.24-.69-.18-.05-.38-.08-.6-.1-.22-.01-.41-.02-.59-.02h-4.5v6.35Zm7.66,9.51l-3.71-7.66,3.2-.71,4.08,8.36h-3.57Z"/>
    <path class="cls-4" d="m809.71,25.68V6.86h3.15v18.82h-3.15Z"/>
    <path class="cls-4" d="m815.47,25.68l5.93-18.82h4.61l5.93,18.82h-3.24l-5.38-16.88h.71l-5.32,16.88h-3.24Zm3.31-4.08v-2.94h9.88v2.94h-9.88Z"/>
    <path class="cls-4" d="m834.3,25.68V6.86h3.19l8.73,13.26V6.86h3.19v18.82h-3.19l-8.73-13.26v13.26h-3.19Z"/>
    <path class="cls-4" d="m853.06,25.68V6.86h3.15v8.73l7.51-8.73h3.87l-8.09,9.23,8.64,9.59h-4l-7.93-8.78v8.78h-3.15Z"/>
    <path class="cls-4" d="m870.24,25.68V6.86h3.15v15.86h8.31v2.95h-11.46Z"/>
    <path class="cls-4" d="m889.3,26.03c-.94,0-1.83-.18-2.67-.55-.84-.37-1.56-.88-2.18-1.56s-1.06-1.46-1.33-2.38l3.04-.82c.22.75.62,1.33,1.2,1.73.58.41,1.22.6,1.91.59.62,0,1.17-.14,1.66-.43.49-.29.87-.68,1.15-1.17.28-.49.42-1.04.42-1.65,0-.93-.3-1.71-.9-2.34-.6-.63-1.38-.94-2.33-.94-.29,0-.57.04-.84.12-.27.08-.54.19-.79.33l-1.44-2.48,6.33-5.41.27.76h-8.95v-2.97h11.54v2.98l-5.08,4.89-.03-.93c1.14.08,2.12.4,2.92.95s1.42,1.28,1.86,2.16c.43.88.65,1.84.65,2.89,0,1.19-.29,2.25-.87,3.19-.58.94-1.36,1.68-2.33,2.23-.97.54-2.04.82-3.22.82Z"/>
    <path class="cls-4" d="m899.64,25.68v-3.23h3.23v3.23h-3.23Z"/>
  </g>
  <path class="cls-2" d="m779.77,54.46v-15.86h-6.09v-2.95h15.33v2.95h-6.09v15.86h-3.15Z"/>
  <path class="cls-2" d="m791.1,54.46v-18.82h7.78c.18,0,.42,0,.71.02.29.01.55.04.8.08,1.09.17,1.99.53,2.7,1.08s1.24,1.26,1.58,2.11c.34.85.52,1.79.52,2.83,0,1.53-.39,2.85-1.16,3.95-.78,1.1-1.96,1.78-3.57,2.05l-1.35.12h-4.85v6.57h-3.15Zm3.15-9.51h4.5c.17,0,.37,0,.59-.03.22-.02.42-.05.6-.1.52-.13.93-.36,1.24-.69.3-.33.51-.71.64-1.12.13-.42.19-.83.19-1.23s-.06-.81-.19-1.23-.34-.8-.64-1.13c-.3-.33-.71-.56-1.24-.69-.18-.05-.38-.08-.6-.1-.22-.01-.41-.02-.59-.02h-4.5v6.35Zm7.66,9.51l-3.71-7.66,3.2-.71,4.08,8.36h-3.57Z"/>
  <path class="cls-2" d="m808.61,54.46v-18.82h3.15v18.82h-3.15Z"/>
  <path class="cls-2" d="m814.37,54.46l5.93-18.82h4.61l5.93,18.82h-3.24l-5.38-16.88h.71l-5.32,16.88h-3.24Zm3.31-4.08v-2.94h9.88v2.94h-9.88Z"/>
  <path class="cls-2" d="m833.2,54.46v-18.82h3.19l8.73,13.26v-13.26h3.19v18.82h-3.19l-8.73-13.26v13.26h-3.19Z"/>
  <path class="cls-2" d="m851.97,54.46v-18.82h3.15v8.73l7.51-8.73h3.87l-8.09,9.23,8.64,9.59h-4l-7.93-8.78v8.78h-3.15Z"/>
  <path class="cls-2" d="m869.14,54.46v-18.82h3.15v15.86h8.31v2.95h-11.46Z"/>
  <path class="cls-2" d="m882.82,54.46v-18.82h12.15v2.95h-9v4.64h7.44v2.95h-7.44v5.32h9v2.95h-12.15Z"/>
  <path class="cls-1" d="m797.88,80.6c-1.44,0-2.63-.37-3.59-1.12-.95-.75-1.62-1.76-2.01-3.03l3.11-.74c.1.53.37.99.84,1.37s.97.58,1.53.58c.37,0,.75-.1,1.16-.29.41-.2.71-.51.91-.95.12-.28.19-.61.22-1s.03-.84.03-1.35v-12.66h3.19v12.66c0,.58,0,1.1,0,1.54,0,.44-.05.85-.13,1.24s-.25.79-.49,1.2c-.51.89-1.18,1.54-2.01,1.95-.83.41-1.75.62-2.76.62Z"/>
  <path class="cls-1" d="m815.15,80.6c-1.88,0-3.49-.41-4.83-1.23-1.34-.82-2.37-1.97-3.09-3.44s-1.08-3.18-1.08-5.12.36-3.65,1.08-5.12c.72-1.47,1.75-2.62,3.09-3.44,1.34-.82,2.95-1.23,4.83-1.23s3.5.41,4.84,1.23c1.35.82,2.38,1.97,3.1,3.44.72,1.47,1.08,3.18,1.08,5.12s-.36,3.65-1.08,5.12c-.72,1.47-1.75,2.62-3.1,3.44s-2.96,1.23-4.84,1.23Zm0-2.97c1.26,0,2.32-.27,3.16-.84s1.47-1.36,1.89-2.39.63-2.23.63-3.61-.21-2.57-.63-3.59c-.42-1.01-1.05-1.81-1.89-2.37s-1.89-.86-3.16-.88c-1.26,0-2.31.27-3.15.84-.84.57-1.47,1.36-1.89,2.39s-.63,2.23-.63,3.61.21,2.57.63,3.59c.42,1.02,1.05,1.81,1.89,2.37s1.89.86,3.16.88Z"/>
  <path class="cls-1" d="m826.78,80.21v-18.82h3.15v7.92h8.91v-7.92h3.14v18.82h-3.14v-7.94h-8.91v7.94h-3.15Z"/>
  <path class="cls-1" d="m845.64,80.21v-18.82h3.19l8.73,13.26v-13.26h3.19v18.82h-3.19l-8.73-13.26v13.26h-3.19Z"/>
  <path class="cls-1" d="m864.41,80.21v-18.82h3.19l8.73,13.26v-13.26h3.19v18.82h-3.19l-8.73-13.26v13.26h-3.19Z"/>
  <path class="cls-1" d="m887.74,80.21v-7.71l-6.4-11.11h3.67l4.33,7.5,4.31-7.5h3.67l-6.39,11.11v7.71h-3.19Z"/>
  <path class="cls-6" d="m816.78,108.95v-19.05h6c.16,0,.47,0,.93.01.47,0,.92.04,1.35.09,1.49.19,2.75.73,3.78,1.61,1.03.88,1.81,2,2.35,3.35.53,1.36.8,2.84.8,4.46s-.27,3.1-.8,4.46c-.53,1.36-1.31,2.48-2.35,3.35-1.03.88-2.29,1.41-3.78,1.61-.43.05-.88.08-1.35.09-.47,0-.78.01-.94.01h-6Zm3.2-3h2.8c.26,0,.59,0,1-.03.41-.02.76-.06,1.08-.12.89-.17,1.61-.57,2.17-1.2.56-.63.97-1.41,1.24-2.31.27-.91.4-1.86.4-2.86s-.14-2-.41-2.91c-.27-.91-.69-1.67-1.25-2.29s-1.28-1.01-2.15-1.18c-.31-.07-.67-.11-1.08-.13-.41-.01-.74-.02-1-.02h-2.8v13.04Z"/>
  <path class="cls-6" d="m834.56,108.95v-.44l9.28-15.62h-8.62v-2.99h14.07v.45l-9.23,15.6h9v3h-14.5Zm2.65-25.26h2.94l1.95,2.35,1.95-2.35h2.94l-3.57,4.17h-2.64l-3.57-4.17Z"/>
  <path class="cls-6" d="m860.38,109.35c-1.88,0-3.49-.42-4.83-1.25-1.34-.83-2.37-2-3.09-3.49s-1.08-3.22-1.08-5.19.36-3.69,1.08-5.19c.72-1.49,1.75-2.65,3.09-3.49,1.34-.83,2.95-1.25,4.83-1.25s3.5.42,4.84,1.25c1.35.83,2.38,2,3.1,3.49.72,1.49,1.08,3.22,1.08,5.19s-.36,3.7-1.08,5.19c-.72,1.49-1.75,2.65-3.1,3.49s-2.96,1.25-4.84,1.25Zm0-3c1.26,0,2.32-.27,3.16-.85s1.47-1.38,1.89-2.42.63-2.26.63-3.65-.21-2.6-.63-3.63c-.42-1.03-1.05-1.83-1.89-2.4s-1.89-.87-3.16-.89c-1.26,0-2.31.27-3.15.85-.84.57-1.47,1.38-1.89,2.42s-.63,2.26-.63,3.65.21,2.6.63,3.63c.42,1.03,1.05,1.83,1.89,2.4s1.89.87,3.16.89Z"/>
  <path class="cls-6" d="m872.01,108.95v-19.26h3.21l8.79,13.58v-13.58h3.21v19.26h-3.21l-8.79-13.58v13.58h-3.21Z"/>
  <path class="cls-6" d="m891.04,108.95v-19.05h3.15v19.05h-3.15Z"/>
  <path class="cls-3" d="m822.88,138.7v-18.82h3.15v7.92h8.91v-7.92h3.14v18.82h-3.14v-7.94h-8.91v7.94h-3.15Z"/>
  <path class="cls-3" d="m856.84,138.7h-3.19v-13.26l-8.73,13.26h-3.19v-18.82h3.19v13.26l8.73-13.26h3.19v18.82Z"/>
  <path class="cls-3" d="m867.14,141.84v-3.14h-6.64v-18.82h3.15v15.86h10.13v-15.86h3.15v18.82h-6.64v3.14h-3.15Z"/>
  <path class="cls-3" d="m879.28,138.7l5.93-18.82h4.61l5.93,18.82h-3.24l-5.38-16.88h.71l-5.32,16.88h-3.24Zm3.31-4.08v-2.94h9.88v2.94h-9.88Z"/>
  <path class="cls-5" d="m788.89,169.45v-18.82h3.15v7.92h8.91v-7.92h3.14v18.82h-3.14v-7.94h-8.91v7.94h-3.15Z"/>
  <path class="cls-5" d="m822.85,169.45h-3.19v-13.26l-8.73,13.26h-3.19v-18.82h3.19v13.26l8.73-13.26h3.19v18.82Z"/>
  <path class="cls-5" d="m826.51,169.45v-18.82h3.15v8.73l7.51-8.73h3.87l-8.09,9.23,8.64,9.59h-4l-7.93-8.78v8.78h-3.15Z"/>
  <path class="cls-5" d="m850.59,169.84c-1.88,0-3.49-.41-4.83-1.23-1.34-.82-2.37-1.97-3.09-3.44s-1.08-3.18-1.08-5.12.36-3.65,1.08-5.12c.72-1.47,1.75-2.62,3.09-3.44,1.34-.82,2.95-1.23,4.83-1.23s3.5.41,4.84,1.23c1.35.82,2.38,1.97,3.1,3.44.72,1.47,1.08,3.18,1.08,5.12s-.36,3.65-1.08,5.12c-.72,1.47-1.75,2.62-3.1,3.44s-2.96,1.23-4.84,1.23Zm0-2.97c1.26,0,2.32-.27,3.16-.84s1.47-1.36,1.89-2.39.63-2.23.63-3.61-.21-2.57-.63-3.59c-.42-1.01-1.05-1.81-1.89-2.37s-1.89-.86-3.16-.88c-1.26,0-2.31.27-3.15.84-.84.57-1.47,1.36-1.89,2.39s-.63,2.23-.63,3.61.21,2.57.63,3.59c.42,1.02,1.05,1.81,1.89,2.37s1.89.86,3.16.88Z"/>
  <path class="cls-5" d="m860.39,169.45v-2.64c.42.03.77,0,1.06-.1.29-.09.53-.27.73-.54.2-.27.37-.64.52-1.14.15-.49.29-1.11.43-1.86.2-1.07.37-2.19.5-3.35.13-1.16.25-2.31.35-3.44.1-1.13.17-2.19.22-3.18.05-.99.1-1.85.13-2.57h12.6v18.82h-3.15v-15.86h-6.53c-.04.58-.09,1.29-.15,2.11s-.13,1.71-.22,2.67c-.09.96-.21,1.95-.34,2.98-.14,1.03-.3,2.04-.49,3.03-.17.91-.38,1.72-.63,2.44-.24.72-.57,1.31-.97,1.78-.41.47-.93.78-1.58.93-.65.16-1.47.13-2.46-.08Z"/>
  <path class="cls-5" d="m879.28,169.45l5.93-18.82h4.61l5.93,18.82h-3.24l-5.38-16.88h.71l-5.32,16.88h-3.24Zm3.31-4.08v-2.94h9.88v2.94h-9.88Z"/>
</svg>