<?xml version="1.0" encoding="utf-8"?>
<!-- Generator: Adobe Illustrator 27.1.1, SVG Export Plug-In . SVG Version: 6.00 Build 0)  -->
<svg version="1.1" id="Layer_1" xmlns="http://www.w3.org/2000/svg" xmlns:xlink="http://www.w3.org/1999/xlink" x="0px" y="0px"
	 viewBox="0 0 800 800" style="enable-background:new 0 0 800 800;" xml:space="preserve">
<style type="text/css">
	.st0{fill:#DDDDDD;}
</style>
<g>
	<path id="Mail_00000019674196928084039220000014630275827285284287_" class="st0" d="M713.65,110.51H86.35
		c-39.97,0-72.37,32.4-72.37,72.37v434.23c0,39.97,32.4,72.37,72.37,72.37h627.3c39.97,0,72.37-32.4,72.37-72.37V182.89
		C786.02,142.91,753.62,110.51,713.65,110.51z M761.9,606.39l-228.2-228.2l228.2-145.41V606.39z M86.35,134.64h627.3
		c26.6,0,48.25,21.64,48.25,48.25v21.31L429.77,415.84c-17.97,11.45-40.93,11.1-58.5-0.85L38.1,188.55v-5.66
		C38.1,156.28,59.75,134.64,86.35,134.64z M38.1,217.69l231.42,157.29L38.1,606.39V217.69z M713.65,665.36H86.35
		c-19.87,0-36.96-12.09-44.34-29.29l247.51-247.51l68.21,46.36c13.1,8.91,28.25,13.37,43.42,13.37c14.42,0,28.86-4.03,41.57-12.12
		l70.47-44.91L758,636.07C750.61,653.27,733.52,665.36,713.65,665.36z"/>
	<path class="st0" d="M713.65,703.14H86.35c-47.43,0-86.03-38.59-86.03-86.03V182.89c0-47.43,38.59-86.03,86.03-86.03h627.3
		c47.43,0,86.02,38.59,86.02,86.03v434.23C799.68,664.55,761.09,703.14,713.65,703.14z M59.06,638.33
		c6.46,8.32,16.46,13.37,27.29,13.37h627.3c10.83,0,20.82-5.05,27.29-13.37L511.28,408.67l-61.23,39.02
		c-14.65,9.33-31.56,14.26-48.91,14.26c-18.29,0-35.96-5.44-51.1-15.73l-58.86-40.01L59.06,638.33z M555.38,380.57l192.86,192.86
		V257.67L555.38,380.57z M51.76,243.48v329.95L248.2,376.99L51.76,243.48z M51.79,181.34L378.95,403.7
		c13.06,8.89,30.13,9.13,43.48,0.63L748.24,196.7v-13.82c0-19.07-15.52-34.59-34.59-34.59H86.35
		C67.79,148.29,52.6,162.98,51.79,181.34z"/>
</g>
</svg>
