<?xml version="1.0" encoding="utf-8"?>
<!-- Generator: Adobe Illustrator 27.1.1, SVG Export Plug-In . SVG Version: 6.00 Build 0)  -->
<svg version="1.1" id="Layer_1" xmlns="http://www.w3.org/2000/svg" xmlns:xlink="http://www.w3.org/1999/xlink" x="0px" y="0px"
	 viewBox="0 0 98 96" style="enable-background:new 0 0 98 96;" xml:space="preserve">
<style type="text/css">
	.st0{fill-rule:evenodd;clip-rule:evenodd;fill:#DDDDDD;}
</style>
<path class="st0" d="M48.85,0C21.84,0,0,22,0,49.22c0,21.76,13.99,40.17,33.4,46.69c2.43,0.49,3.32-1.06,3.32-2.36
	c0-1.14-0.08-5.05-0.08-9.13c-13.59,2.93-16.42-5.87-16.42-5.87c-2.18-5.7-5.42-7.17-5.42-7.17c-4.45-3.01,0.32-3.01,0.32-3.01
	c4.93,0.33,7.52,5.05,7.52,5.05c4.37,7.5,11.4,5.38,14.24,4.07c0.4-3.18,1.7-5.38,3.07-6.6c-10.84-1.14-22.24-5.38-22.24-24.28
	c0-5.38,1.94-9.78,5.01-13.2c-0.49-1.22-2.18-6.28,0.49-13.04c0,0,4.12-1.3,13.43,5.05c3.98-1.08,8.09-1.63,12.21-1.63
	c4.12,0,8.33,0.57,12.21,1.63c9.3-6.36,13.43-5.05,13.43-5.05c2.67,6.76,0.97,11.82,0.49,13.04c3.15,3.42,5.01,7.82,5.01,13.2
	c0,18.9-11.4,23.06-22.32,24.28c1.78,1.55,3.32,4.48,3.32,9.13c0,6.6-0.08,11.9-0.08,13.53c0,1.3,0.89,2.85,3.32,2.36
	c19.41-6.52,33.4-24.93,33.4-46.69C97.71,22,75.79,0,48.85,0z"/>
</svg>
