<?xml version="1.0" encoding="utf-8"?>
<!-- Generator: Adobe Illustrator 27.1.1, SVG Export Plug-In . SVG Version: 6.00 Build 0)  -->
<svg version="1.1" id="Layer_1" xmlns="http://www.w3.org/2000/svg" xmlns:xlink="http://www.w3.org/1999/xlink" x="0px" y="0px"
	 viewBox="0 0 1920 1080" style="enable-background:new 0 0 1920 1080;" xml:space="preserve">
<style type="text/css">
	.st0{fill:none;stroke:#FFFFFF;stroke-width:2;stroke-miterlimit:10;}
</style>
<polygon class="st0" points="289.37,145.88 1640.69,145.88 1640.69,938.73 291.32,938.73 "/>
<polygon class="st0" points="236.09,112.85 1695.78,113.33 1692.74,971.43 236.09,971.3 "/>
<polygon class="st0" points="171.5,73.07 1758.52,76.25 1756.13,1008.83 172.44,1008.83 "/>
<polygon class="st0" points="100.45,28.99 1838.49,28.99 1835.91,1055.89 93.01,1055.66 "/>
<line class="st0" x1="53.6" y1="0" x2="289.37" y2="145.88"/>
<line class="st0" x1="1887.55" y1="0" x2="1640.19" y2="146.18"/>
<line class="st0" x1="51.73" y1="1080" x2="291.32" y2="938.73"/>
<polyline class="st0" points="279.61,1080 459.75,938.73 459.75,145.88 274.26,0 "/>
<polyline class="st0" points="509.22,1080 627.62,938.73 627.62,145.88 504.35,0 "/>
<polyline class="st0" points="737.08,1080 796.88,938.73 796.88,145.88 735.37,0 "/>
<polyline class="st0" points="966.07,1080 966.98,938.73 966.98,145.88 966.09,0 "/>
<polyline class="st0" points="1195.16,1080 1134.99,938.73 1134.99,145.88 1197.58,0 "/>
<polyline class="st0" points="1424.82,1080 1303.28,938.73 1303.28,145.88 1427.26,0 "/>
<polyline class="st0" points="1652.83,1080 1473.66,938.73 1473.66,145.88 1656.76,0 "/>
<line class="st0" x1="1876.79" y1="1080" x2="1637.3" y2="938.73"/>
<polyline class="st0" points="1920,821.57 1640.69,742.14 290.84,742.14 0,825.94 "/>
<polyline class="st0" points="1920,542.44 1640.69,542.31 290.35,542.31 0,542.14 "/>
<polyline class="st0" points="1920,261.32 1640.69,343.4 289.37,343.4 0,256.82 "/>
</svg>
