<?xml version="1.0" encoding="utf-8"?>
<!-- Generator: Adobe Illustrator 27.1.1, SVG Export Plug-In . SVG Version: 6.00 Build 0)  -->
<svg version="1.1" xmlns="http://www.w3.org/2000/svg" xmlns:xlink="http://www.w3.org/1999/xlink" x="0px" y="0px"
	 viewBox="0 0 907 1279" style="enable-background:new 0 0 907 1279;" xml:space="preserve">
<style type="text/css">
	.st0{fill:#DDDDDD;}
	.st1{fill:none;stroke:#DDDDDD;stroke-width:2;stroke-miterlimit:10;}
</style>
<g id="Layer_1">
	<path class="st0" d="M815.72,160.3V0.13h48.29c9.87,0,17.89,1.78,24.04,5.34c6.15,3.56,10.69,8.73,13.6,15.52
		c2.91,6.79,4.36,15,4.36,24.62c0,10.42-1.83,18.82-5.48,25.21c-3.65,6.4-8.76,11.04-15.32,13.94c-6.56,2.9-14.31,4.35-23.23,4.35
		h-16.23v71.19H815.72z M845.75,68.55h11.36c5.41,0,9.64-0.76,12.68-2.27c3.04-1.51,5.14-3.95,6.29-7.32
		c1.15-3.36,1.72-7.88,1.72-13.55c0-5.8-0.44-10.51-1.32-14.14c-0.88-3.62-2.77-6.29-5.68-8.01c-2.91-1.71-7.48-2.57-13.7-2.57
		h-11.36V68.55z"/>
	<path class="st0" d="M815.72,338.27V178.1h24.81v101.05l45.51-101.05h20.3v160.18h-25.01V235.64l-45.72,102.63H815.72z"/>
	<g id="ankl3">
		<path class="st1" d="M815.72,872.19V712.02h28.69v67.23h5.85l25.57-67.23h28.69l-30.06,75.54l32.4,84.64h-29.28l-27.32-73.76
			h-5.85v73.76H815.72z"/>
		<path class="st1" d="M785.92,1050.16v-20.96c4.28,0.13,3.38,0.58,6.18-0.61c2.7-1.15,4.04-2.03,6.1-4.14
			c2.06-2.11,3.78-5.37,5.16-9.79c1.38-4.42,2.52-10.38,3.44-17.9c0.92-7.51,1.91-17.07,2.98-28.67l5.96-78.11h90.36v160.18H872.4
			V911.94h-26.6l-4.13,59.72c-0.92,11.74-1.95,22.08-3.1,31.05c-1.15,8.97-2.91,16.58-5.27,22.84c-2.37,6.26-5.7,11.31-9.98,15.13
			c-4.28,3.83-9.94,6.5-16.97,8.01C799.31,1050.2,796.62,1050.69,785.92,1050.16z"/>
		<path class="st1" d="M815.72,516.25l30.42-160.18h29.67l30.42,160.18h-25.73l-6.01-36.98h-26.48l-6.2,36.98H815.72z
			 M850.84,460.68h20.66l-10.33-67.23L850.84,460.68z"/>
		<path class="st1" d="M815.72,694.22V534.04h28.96v67.04h32.5v-67.04h29.15v160.18h-29.15v-72.38h-32.5v72.38H815.72z"/>
	</g>
	<g>
		<g>
			<path class="st0" d="M817.87,1068.38v8.43h-8.49c-0.55,0-1,0.45-1,1v52.07h-12.11v-52.07c0-0.55-0.45-1-1-1h-8.56v-8.43H817.87
				 M818.87,1067.38h-33.16v10.43h9.56v53.07h14.11v-53.07h9.49V1067.38L818.87,1067.38z"/>
		</g>
		<g>
			<path class="st0" d="M845.76,1068.38c3.62,0,6.61,0.68,8.9,2.02c2.26,1.32,3.97,3.28,5.08,5.81c1.14,2.61,1.72,5.83,1.72,9.59
				c0,4.7-0.77,8.3-2.28,10.72c-1.49,2.38-3.54,4.05-6.07,4.96c-2.65,0.95-5.67,1.43-8.99,1.43h-5.64c-0.55,0-1,0.45-1,1v25.97
				h-12.03v-61.49H845.76 M838.47,1095.11h4.7c1.95,0,3.42-0.37,4.5-1.12c1.09-0.77,1.82-1.92,2.16-3.42c0.3-1.32,0.46-3.01,0.46-5
				c0-1.67-0.12-3.17-0.37-4.46c-0.28-1.46-0.96-2.64-2.03-3.52c-1.08-0.89-2.65-1.32-4.79-1.32h-4.62c-0.55,0-1,0.45-1,1v16.85
				C837.47,1094.66,837.92,1095.11,838.47,1095.11 M845.76,1067.38h-21.32v63.49h14.03v-26.97h5.64c3.45,0,6.56-0.5,9.33-1.49
				c2.77-0.99,4.96-2.78,6.58-5.37c1.62-2.59,2.43-6.34,2.43-11.25c0-3.92-0.6-7.25-1.8-9.99c-1.2-2.74-3.03-4.83-5.49-6.27
				C852.71,1068.09,849.57,1067.38,845.76,1067.38L845.76,1067.38z M838.47,1094.11v-16.85h4.62c1.88,0,3.27,0.37,4.15,1.1
				c0.89,0.73,1.45,1.71,1.69,2.94c0.23,1.23,0.35,2.65,0.35,4.27c0,1.93-0.14,3.53-0.43,4.78c-0.29,1.25-0.88,2.19-1.76,2.82
				c-0.89,0.63-2.2,0.94-3.92,0.94H838.47L838.47,1094.11z"/>
		</g>
		<g>
			<path class="st0" d="M904.8,1068.38v61.49h-9.29v-36c0-0.47-0.33-0.88-0.79-0.98c-0.07-0.01-0.14-0.02-0.21-0.02
				c-0.39,0-0.75,0.23-0.91,0.59l-16.27,36.41h-6.9v-61.49h9.05v35.37c0,0.47,0.33,0.88,0.79,0.98c0.07,0.01,0.14,0.02,0.21,0.02
				c0.39,0,0.75-0.23,0.91-0.59l15.96-35.78H904.8 M905.8,1067.38h-9.09l-16.23,36.37v-36.37h-11.05v63.49h8.54l16.54-37v37h11.29
				V1067.38L905.8,1067.38z"/>
		</g>
		<g>
			<path class="st0" d="M817.87,1142.44v8.43h-8.49c-0.55,0-1,0.45-1,1v52.07h-12.11v-52.07c0-0.55-0.45-1-1-1h-8.56v-8.43H817.87
				 M818.87,1141.44h-33.16v10.43h9.56v53.07h14.11v-53.07h9.49V1141.44L818.87,1141.44z"/>
		</g>
		<g>
			<path class="st0" d="M845.76,1142.44c3.62,0,6.61,0.68,8.9,2.02c2.26,1.32,3.97,3.28,5.08,5.81c1.14,2.61,1.72,5.83,1.72,9.59
				c0,4.7-0.77,8.3-2.28,10.72c-1.49,2.38-3.54,4.05-6.07,4.96c-2.65,0.95-5.67,1.43-8.99,1.43h-5.64c-0.55,0-1,0.45-1,1v25.97
				h-12.03v-61.49H845.76 M838.47,1169.17h4.7c1.95,0,3.42-0.37,4.5-1.12c1.09-0.77,1.82-1.92,2.16-3.42c0.3-1.32,0.46-3.01,0.46-5
				c0-1.67-0.12-3.17-0.37-4.46c-0.28-1.46-0.96-2.64-2.03-3.52c-1.08-0.89-2.65-1.32-4.79-1.32h-4.62c-0.55,0-1,0.45-1,1v16.85
				C837.47,1168.72,837.92,1169.17,838.47,1169.17 M845.76,1141.44h-21.32v63.49h14.03v-26.97h5.64c3.45,0,6.56-0.5,9.33-1.49
				c2.77-0.99,4.96-2.78,6.58-5.37c1.62-2.59,2.43-6.34,2.43-11.25c0-3.92-0.6-7.25-1.8-9.99c-1.2-2.74-3.03-4.83-5.49-6.27
				C852.71,1142.16,849.57,1141.44,845.76,1141.44L845.76,1141.44z M838.47,1168.17v-16.85h4.62c1.88,0,3.27,0.37,4.15,1.1
				c0.89,0.73,1.45,1.71,1.69,2.94c0.23,1.23,0.35,2.65,0.35,4.27c0,1.93-0.14,3.53-0.43,4.78c-0.29,1.25-0.88,2.19-1.76,2.82
				c-0.89,0.63-2.2,0.94-3.92,0.94H838.47L838.47,1168.17z"/>
		</g>
		<g>
			<path class="st0" d="M904.8,1142.44v61.49h-9.29v-36c0-0.47-0.33-0.88-0.79-0.98c-0.07-0.01-0.14-0.02-0.21-0.02
				c-0.39,0-0.75,0.23-0.91,0.59l-16.27,36.41h-6.9v-61.49h9.05v35.37c0,0.47,0.33,0.88,0.79,0.98c0.07,0.01,0.14,0.02,0.21,0.02
				c0.39,0,0.75-0.23,0.91-0.59l15.96-35.78H904.8 M905.8,1141.44h-9.09l-16.23,36.37v-36.37h-11.05v63.49h8.54l16.54-37v37h11.29
				V1141.44L905.8,1141.44z"/>
		</g>
		<g>
			<path class="st0" d="M817.87,1216.51v8.43h-8.49c-0.55,0-1,0.45-1,1V1278h-12.11v-52.07c0-0.55-0.45-1-1-1h-8.56v-8.43H817.87
				 M818.87,1215.51h-33.16v10.43h9.56V1279h14.11v-53.07h9.49V1215.51L818.87,1215.51z"/>
		</g>
		<g>
			<path class="st0" d="M845.76,1216.51c3.62,0,6.61,0.68,8.9,2.02c2.26,1.32,3.97,3.28,5.08,5.81c1.14,2.6,1.72,5.83,1.72,9.59
				c0,4.7-0.77,8.3-2.28,10.72c-1.49,2.38-3.54,4.05-6.07,4.96c-2.65,0.95-5.67,1.43-8.99,1.43h-5.64c-0.55,0-1,0.45-1,1V1278
				h-12.03v-61.49H845.76 M838.47,1243.24h4.7c1.95,0,3.42-0.37,4.5-1.12c1.09-0.77,1.82-1.92,2.16-3.42c0.3-1.32,0.46-3.01,0.46-5
				c0-1.67-0.12-3.17-0.37-4.46c-0.28-1.46-0.96-2.64-2.03-3.52c-1.08-0.89-2.65-1.32-4.79-1.32h-4.62c-0.55,0-1,0.45-1,1v16.85
				C837.47,1242.79,837.92,1243.24,838.47,1243.24 M845.76,1215.51h-21.32V1279h14.03v-26.97h5.64c3.45,0,6.56-0.5,9.33-1.49
				c2.77-0.99,4.96-2.78,6.58-5.37c1.62-2.59,2.43-6.34,2.43-11.25c0-3.92-0.6-7.25-1.8-9.99c-1.2-2.74-3.03-4.83-5.49-6.27
				C852.71,1216.22,849.57,1215.51,845.76,1215.51L845.76,1215.51z M838.47,1242.24v-16.85h4.62c1.88,0,3.27,0.37,4.15,1.1
				c0.89,0.73,1.45,1.71,1.69,2.94c0.23,1.23,0.35,2.65,0.35,4.27c0,1.93-0.14,3.53-0.43,4.78c-0.29,1.25-0.88,2.19-1.76,2.82
				c-0.89,0.63-2.2,0.94-3.92,0.94H838.47L838.47,1242.24z"/>
		</g>
		<g>
			<path class="st0" d="M904.8,1216.51V1278h-9.29v-36c0-0.47-0.33-0.88-0.79-0.98c-0.07-0.01-0.14-0.02-0.21-0.02
				c-0.39,0-0.75,0.23-0.91,0.59L877.33,1278h-6.9v-61.49h9.05v35.37c0,0.47,0.33,0.88,0.79,0.98c0.07,0.01,0.14,0.02,0.21,0.02
				c0.39,0,0.75-0.23,0.91-0.59l15.96-35.78H904.8 M905.8,1215.51h-9.09l-16.23,36.37v-36.37h-11.05V1279h8.54l16.54-37v37h11.29
				V1215.51L905.8,1215.51z"/>
		</g>
	</g>
</g>
<g id="Layer_2">
</g>
</svg>
