<?xml version="1.0" encoding="utf-8"?>
<!-- Generator: Adobe Illustrator 27.1.1, SVG Export Plug-In . SVG Version: 6.00 Build 0)  -->
<svg version="1.1" id="Layer_1" xmlns="http://www.w3.org/2000/svg" xmlns:xlink="http://www.w3.org/1999/xlink" x="0px" y="0px"
	 viewBox="0 0 2048 2048" style="enable-background:new 0 0 2048 2048;" xml:space="preserve">
<style type="text/css">
	.st0{fill:#FFFFFF;}
</style>
<path class="st0" d="M270.6,854.9c-40.6,0-79.3-8.2-116.1-24.6c-36.8-16.4-68.9-39.5-96.1-69.4C31.1,731.1,11.7,696,0,655.6
	l148.9-39.6c7.9,29.8,23.4,53,46.5,69.4c23.1,16.4,48.2,24.6,75.3,24.6c23.3,0,44.6-5.7,64-17c19.4-11.3,34.8-26.6,46.2-45.9
	c11.5-19.3,17.2-40.6,17.2-64c0-35.1-11.9-65.2-35.8-90.3c-23.9-25.1-54.4-37.7-91.6-37.7c-11.3,0-22.2,1.6-32.7,4.8
	c-10.5,3.2-20.7,7.6-30.4,13.3L138.7,352l258.2-215.2l11.3,32.9H31.6v-145H539v145L338.3,364.5l-1.1-43c46.6,7.2,86,23.5,118.1,49
	s56.6,56.8,73.3,94c16.7,37.2,25.1,76.7,25.1,118.6c0,51.3-13,97.5-38.9,138.5c-25.9,41-60.3,73.4-103.2,97.4
	C368.7,842.9,321.7,854.9,270.6,854.9z"/>
<path class="st0" d="M844.8,850.3c-56.9,0-105.1-11-144.6-33c-39.5-22-69.4-51.4-89.8-88.2c-20.4-36.8-30.5-77.5-30.5-122
	c0-37.1,5.6-70.9,16.9-101.6c11.3-30.6,29.6-57.7,54.8-81.2c25.3-23.5,59.3-43.1,101.9-58.9c29.4-10.9,64.5-20.5,105.3-28.9
	c40.7-8.4,86.8-16.4,138.4-24.1c51.5-7.7,108.2-16.2,170-25.6l-72.1,40c0-47.4-11.3-82.3-33.9-104.5s-60.4-33.4-113.3-33.4
	c-29.4,0-60.1,7.2-92,21.5c-31.9,14.3-54.2,39.8-67,76.4l-181.1-57.8c20.1-66.2,57.9-120.1,113.4-161.6
	C776.6,26,852.2,5.2,947.9,5.2c70.2,0,132.5,10.9,187,32.6c54.5,21.8,95.7,59.3,123.7,112.7c15.7,29.7,25,59.3,28,89
	c2.9,29.7,4.4,62.8,4.4,99.3v489.3h-175.2V663.5l25,34.1c-38.8,53.9-80.6,92.8-125.5,116.8C970.3,838.4,913.5,850.3,844.8,850.3z
	 M884.8,690.1c37.1,0,68.3-6.5,93.8-19.6c25.5-13.1,45.7-28,60.8-44.9c15.1-16.8,25.3-30.9,30.8-42.3c10.4-21.7,16.4-47.1,18.2-76
	c1.7-28.9,2.6-53,2.6-72.3l59.3,14.8c-59.8,9.9-108.2,18.2-145.3,24.8c-37.1,6.7-67,12.7-89.7,18.2c-22.7,5.4-42.8,11.4-60.1,17.8
	c-19.8,7.9-35.7,16.4-47.8,25.6c-12.1,9.1-21,19.2-26.7,30c-5.7,10.9-8.5,23-8.5,36.3c0,18.3,4.6,34,13.7,47.1
	c9.1,13.1,22.1,23.1,38.9,30C841.5,686.6,861.5,690.1,884.8,690.1z"/>
<path class="st0" d="M1317.1,828.1V24.7h199.4v308.1h332.2V24.7H2048v803.4h-199.4V520h-332.2v308.1H1317.1z"/>
<path class="st0" d="M2048,1277.6l-1.4,771.4h-198.3v-371.4l-263,371.4h-241.4l280.3-385.7l-298.9-385.7h254.4l268.8,371.4v-371.4
	H2048z"/>
<path class="st0" d="M1297.1,1277.6V1439c-28.1-5.2-49.7-4.9-64.9,1.1c-15.2,5.9-26.8,17.9-34.6,35.7c-7.9,17.9-14.6,42.2-20.3,73.2
	c-7.6,40.9-14.4,88.8-20.3,143.6c-5.9,54.7-11.1,112.7-15.3,173.9c-4.3,61.2-8.1,122-11.4,182.5H548v-771.4h194.2v588.2h218.3
	c1.9-24.7,4.4-54.1,7.5-88.3c3.1-34.2,6.4-69.7,10-106.5c3.6-36.8,7.5-71.9,11.8-105.4c4.3-33.5,8.8-62.1,13.6-85.8
	c11.4-60.3,28.3-107.8,50.6-142.4c22.4-34.7,53-56.9,92-66.6C1184.9,1261.2,1235.3,1263.4,1297.1,1277.6z"/>
<path class="st0" d="M288.4,1254.5c39.1,0,76.3,7.9,111.8,23.6c35.5,15.7,66.3,37.8,92.5,66.4c26.2,28.5,44.9,62.1,56.2,100.8
	l-143.2,37.9c-7.6-28.5-22.5-50.7-44.8-66.4c-22.2-15.7-46.4-23.6-72.4-23.6c-22.4,0-43,5.4-61.6,16.3
	c-18.6,10.8-33.5,25.5-44.5,43.9c-11,18.4-16.5,38.8-16.5,61.2c0,33.6,11.5,62.4,34.5,86.4c23,24,52.4,36,88.2,36
	c10.9,0,21.3-1.5,31.5-4.6c10.1-3.1,19.9-7.3,29.3-12.7l66.2,116l-248.5,205.9l-10.9-31.4h362.4V2049H30.2v-138.7l193.2-186.4
	l1.1,41.2c-44.8-6.9-82.8-22.5-113.7-46.9c-30.9-24.4-54.4-54.4-70.5-90c-16.1-35.6-24.1-73.4-24.1-113.5
	c0-49.1,12.5-93.3,37.4-132.5c25-39.2,58.1-70.3,99.3-93.2C194,1266,239.2,1254.5,288.4,1254.5z"/>
<rect y="903.1" class="st0" width="2048" height="297.1"/>
</svg>
