<?xml version="1.0" encoding="utf-8"?>
<!-- Generator: Adobe Illustrator 27.1.1, SVG Export Plug-In . SVG Version: 6.00 Build 0)  -->
<svg version="1.1" id="Layer_1" xmlns="http://www.w3.org/2000/svg" xmlns:xlink="http://www.w3.org/1999/xlink" x="0px" y="0px"
	 viewBox="0 0 2048 2048" style="enable-background:new 0 0 2048 2048;" xml:space="preserve">
<style type="text/css">
	.st0{fill:#FFFFFF;}
</style>
<g>
	<g>
		<path class="st0" d="M249.79,1010.7c-36.43,0-71.18-7.37-104.23-22.11c-33.06-14.74-61.82-35.49-86.27-62.26
			c-24.46-26.76-41.91-58.27-52.37-94.53l133.58-35.58c7.09,26.77,21,47.52,41.75,62.26c20.74,14.74,43.26,22.11,67.55,22.11
			c20.91,0,40.05-5.08,57.43-15.25c17.37-10.17,31.19-23.89,41.49-41.17c10.28-17.28,15.43-36.42,15.43-57.43
			c0-31.51-10.71-58.53-32.13-81.06c-21.42-22.53-48.82-33.8-82.22-33.8c-10.12,0-19.91,1.45-29.35,4.32
			c-9.45,2.88-18.55,6.86-27.32,11.94l-61.73-108.76l231.73-193.13l10.12,29.48H35.26V265.63h455.38v130.11L310.5,570.57
			l-1.01-38.63c41.82,6.44,77.16,21.09,106,43.96c28.84,22.87,50.76,51,65.78,84.37c15.01,33.38,22.52,68.87,22.52,106.47
			c0,46.08-11.64,87.5-34.91,124.26c-23.27,36.77-54.14,65.9-92.59,87.42C337.83,999.94,295.66,1010.7,249.79,1010.7z"/>
		<path class="st0" d="M795.08,1006.6c-51.09,0-94.36-9.88-129.8-29.6c-35.45-19.73-62.32-46.12-80.59-79.17
			c-18.28-33.04-27.41-69.52-27.41-109.44c0-33.26,5.06-63.64,15.19-91.14c10.13-27.49,26.53-51.78,49.21-72.85
			c22.68-21.06,53.18-38.69,91.49-52.89c26.42-9.75,57.9-18.4,94.46-25.95c36.54-7.54,77.94-14.74,124.18-21.62
			c46.24-6.87,97.1-14.52,152.59-22.95l-64.73,35.93c0-42.58-10.13-73.85-30.39-93.81c-20.26-19.96-54.16-29.94-101.72-29.94
			c-26.42,0-53.95,6.43-82.57,19.29c-28.63,12.87-48.67,35.71-60.11,68.52l-162.5-51.89c18.05-59.43,51.96-107.77,101.73-145.03
			c49.76-37.25,117.58-55.88,203.45-55.88c62.97,0,118.9,9.76,167.78,29.27c48.88,19.52,85.87,53.22,110.97,101.12
			c14.09,26.61,22.46,53.22,25.1,79.83c2.64,26.61,3.96,56.33,3.96,89.15v439.08h-157.21V838.95l22.46,30.6
			C1025.83,917.9,988.3,952.83,948,974.33C907.71,995.84,856.73,1006.6,795.08,1006.6z M830.91,862.76
			c33.26,0,61.31-5.87,84.15-17.63c22.84-11.75,41.02-25.17,54.55-40.25c13.53-15.07,22.73-27.71,27.61-37.92
			c9.32-19.51,14.74-42.25,16.3-68.19c1.55-25.95,2.33-47.57,2.33-64.87l53.22,13.31c-53.67,8.88-97.13,16.3-130.39,22.29
			c-33.26,5.99-60.1,11.42-80.5,16.3c-20.41,4.88-38.37,10.21-53.89,15.96c-17.75,7.1-32.05,14.75-42.91,22.95
			c-10.87,8.21-18.86,17.2-23.95,26.94c-5.1,9.76-7.65,20.62-7.65,32.6c0,16.41,4.09,30.5,12.3,42.24
			c8.21,11.76,19.85,20.74,34.93,26.94C792.09,859.66,810.06,862.76,830.91,862.76z"/>
		<path class="st0" d="M1368.86,986.64V265.63h178.9v276.48h298.16V265.63h178.9v721.01h-178.9V710.16h-298.16v276.48H1368.86z"/>
	</g>
	<path class="st0" d="M2041.08,1046.27l-1.41,753.54h-193.76V1437l-256.94,362.81H1353.1l273.79-376.77l-292.04-376.77h248.51
		l262.56,362.81v-362.81H2041.08z"/>
	<path class="st0" d="M1287.54,1046.27v157.68c-27.41-5.12-48.55-4.77-63.43,1.05c-14.87,5.81-26.14,17.44-33.81,34.89
		c-7.67,17.44-14.29,41.27-19.86,71.52c-7.43,40-14.05,86.75-19.86,140.24c-5.81,53.48-10.81,110.12-14.99,169.89
		c-4.18,59.77-7.9,119.19-11.15,178.27H555.69v-753.54h189.74v574.64h213.22c1.86-24.12,4.3-52.87,7.32-86.27
		c3.03-33.39,6.27-68.07,9.75-104c3.49-35.95,7.32-70.26,11.5-102.97c4.18-32.7,8.6-60.64,13.24-83.83
		c11.15-58.91,27.64-105.29,49.47-139.14c21.84-33.86,51.81-55.55,89.89-65.05C1177.91,1030.17,1227.16,1032.36,1287.54,1046.27z"/>
	<path class="st0" d="M282.15,1023.7c38.16,0,74.57,7.67,109.19,23.03c34.64,15.35,64.76,36.97,90.38,64.85
		c25.63,27.88,43.91,60.7,54.86,98.47l-139.94,37.06c-7.42-27.88-22-49.5-43.73-64.85c-21.73-15.35-45.32-23.03-70.76-23.03
		c-21.91,0-41.96,5.29-60.16,15.88c-18.2,10.59-32.68,24.88-43.47,42.88c-10.77,18-16.16,37.94-16.16,59.82
		c0,32.83,11.22,60.97,33.66,84.44c22.45,23.47,51.15,35.21,86.14,35.21c10.6,0,20.85-1.51,30.74-4.5c9.89-3,19.44-7.14,28.62-12.44
		l64.67,113.29l-242.77,201.18l-10.6-30.7h354.08v135.53H29.83v-135.53l188.7-182.12l1.06,40.24
		c-43.81-6.71-80.84-21.97-111.05-45.79c-30.21-23.82-53.18-53.12-68.91-87.88c-15.72-34.77-23.59-71.74-23.59-110.91
		c0-48,12.19-91.15,36.57-129.44c24.39-38.3,56.72-68.65,97-91.06C189.91,1034.91,234.09,1023.7,282.15,1023.7z"/>
</g>
</svg>
