<?xml version="1.0" encoding="UTF-8" standalone="no"?>
<!DOCTYPE svg PUBLIC "-//W3C//DTD SVG 1.1//EN" "http://www.w3.org/Graphics/SVG/1.1/DTD/svg11.dtd">
<svg width="100%" height="100%" viewBox="0 0 2048 2048" version="1.1" xmlns="http://www.w3.org/2000/svg" xmlns:xlink="http://www.w3.org/1999/xlink" xml:space="preserve" xmlns:serif="http://www.serif.com/" style="fill-rule:evenodd;clip-rule:evenodd;stroke-linejoin:round;stroke-miterlimit:2;">
    <g transform="matrix(1.58451,0,0,1.58451,1529.27,1734.47)">
        <path d="M0,-126.779L-307.573,0L-105.296,-16.984L0,-126.779Z" style="fill:rgb(28,181,138);fill-rule:nonzero;"/>
    </g>
    <g transform="matrix(1.58451,0,0,1.58451,0,1960.51)">
        <path d="M0,-87.444L177.522,55.213L657.564,-142.657L0,-87.444Z" style="fill:rgb(28,181,138);fill-rule:nonzero;"/>
    </g>
    <g transform="matrix(1.58451,0,0,1.58451,1529.27,1171.31)">
        <path d="M0,228.634L-282.327,-109.795L-105.296,338.429L0,228.634Z" style="fill:rgb(28,181,138);fill-rule:nonzero;"/>
    </g>
    <g transform="matrix(1.58451,0,0,1.58451,281.287,993.43)">
        <path d="M0,665.548L263.056,0L-177.522,522.891L0,665.548Z" style="fill:rgb(28,181,138);fill-rule:nonzero;"/>
    </g>
    <g transform="matrix(1.58451,0,0,1.58451,0,2015.81)">
        <path d="M0,-122.343L241.937,-142.657L177.522,20.314L0,-122.343Z" style="fill:rgb(21,158,120);fill-rule:nonzero;"/>
    </g>
    <g transform="matrix(1.58451,0,0,1.58451,1326.7,1624.06)">
        <path d="M0,-4.401L22.552,52.697L127.848,-57.098L0,-4.401Z" style="fill:rgb(21,158,120);fill-rule:nonzero;"/>
    </g>
</svg>
