<?xml version="1.0" encoding="utf-8"?>
<!-- Generator: Adobe Illustrator 27.1.1, SVG Export Plug-In . SVG Version: 6.00 Build 0)  -->
<svg version="1.1" xmlns="http://www.w3.org/2000/svg" xmlns:xlink="http://www.w3.org/1999/xlink" x="0px" y="0px"
	 viewBox="0 0 2048 2048" style="enable-background:new 0 0 2048 2048;" xml:space="preserve">
<style type="text/css">
	.st0{fill:#DDDDDD;}
	.st1{fill:#BCBCBC;}
</style>
<g id="Layer_1">
</g>
<g id="Layer_3">
	<g>
		<polygon class="st0" points="700.44,0 370.48,121.85 275.87,909.71 		"/>
		<polygon class="st0" points="214.31,1422.3 275.87,909.71 145.2,1189.68 		"/>
		<polygon class="st0" points="957.93,352.56 1371.89,658.71 1191.17,405.4 		"/>
		<polygon class="st0" points="1952.08,1471.94 1371.89,658.71 2009.33,1130.13 		"/>
		<polygon class="st0" points="1510.19,1533.59 1041.24,1734.47 1349.65,1707.56 		"/>
		<polygon class="st0" points="38.67,1821.96 309.34,2048 1041.24,1734.47 		"/>
		<polygon class="st0" points="1079.74,997.34 370.48,121.85 700.44,0 		"/>
		<polygon class="st0" points="1510.19,1533.59 1079.74,997.34 1349.65,1707.56 		"/>
		<polygon class="st0" points="309.34,2048 710.41,993.43 38.67,1821.96 		"/>
		<polygon class="st0" points="957.93,352.56 710.41,993.43 1191.17,405.4 		"/>
		<polygon class="st0" points="2009.33,1130.13 894.33,1311.62 1952.08,1471.94 		"/>
		<polygon class="st0" points="145.2,1189.68 894.33,1311.62 214.31,1422.3 		"/>
		<g>
			<polygon class="st1" points="957.93,352.56 1191.17,405.4 1130.21,479.97 			"/>
			<polygon class="st1" points="700.44,0 543.75,335.73 370.48,121.85 			"/>
			<polygon class="st1" points="145.2,1189.68 240.38,1205.17 214.31,1422.3 			"/>
			<polygon class="st1" points="38.67,1821.96 407.55,1789.77 309.34,2048 			"/>
			<polygon class="st1" points="1315.27,1617.09 1349.65,1707.56 1510.19,1533.59 			"/>
			<polygon class="st1" points="1739.55,1174.04 1952.08,1471.94 2009.33,1130.13 			"/>
		</g>
	</g>
</g>
</svg>
