<?xml version="1.0" encoding="utf-8"?>
<!-- Generator: Adobe Illustrator 27.1.1, SVG Export Plug-In . SVG Version: 6.00 Build 0)  -->
<svg version="1.1" id="Layer_1" xmlns="http://www.w3.org/2000/svg" xmlns:xlink="http://www.w3.org/1999/xlink" x="0px" y="0px"
	 viewBox="0 0 800 800" style="enable-background:new 0 0 800 800;" xml:space="preserve">
<style type="text/css">
	.st0{fill:#DDDDDD;}
</style>
<path class="st0" d="M773.1,262.6c0-173.6-113.7-224.4-113.7-224.4C602.1,11.9,503.6,0.8,401.3,0h-2.5
	c-102.3,0.8-200.6,11.9-258,38.2c0,0-113.7,50.9-113.7,224.4c0,39.7-0.8,87.2,0.5,137.6c4.1,169.7,31.1,337,188,378.5
	C288,798,350.1,802,400.1,799.2c90.7-5,141.6-32.4,141.6-32.4l-3-65.8c0,0-64.8,20.4-137.6,18c-72.2-2.5-148.3-7.8-160-96.4
	c-1.1-8.2-1.6-16.5-1.6-24.8c0,0,70.8,17.3,160.6,21.4c54.9,2.5,106.3-3.2,158.6-9.4c100.2-12,187.5-73.7,198.5-130.2
	C774.5,390.7,773.1,262.6,773.1,262.6L773.1,262.6z M639,486.2h-83.2v-204c0-43-18.1-64.8-54.3-64.8c-40,0-60,25.9-60,77.1v111.6
	h-82.8V294.6c0-51.2-20-77.1-60.1-77.1c-36.2,0-54.3,21.8-54.3,64.8v204h-83.2V276.1c0-43,10.9-77.1,32.9-102.3
	c22.6-25.2,52.3-38.2,89.1-38.2c42.6,0,74.9,16.4,96.2,49.1l20.7,34.8l20.8-34.8c21.3-32.8,53.6-49.1,96.2-49.1
	c36.8,0,66.5,13,89.1,38.2c22,25.2,32.9,59.4,32.9,102.3V486.2z"/>
</svg>
