<?xml version="1.0" encoding="utf-8"?>
<!-- Generator: Adobe Illustrator 27.1.1, SVG Export Plug-In . SVG Version: 6.00 Build 0)  -->
<svg version="1.1" id="Layer_1" xmlns="http://www.w3.org/2000/svg" xmlns:xlink="http://www.w3.org/1999/xlink" x="0px" y="0px"
	 viewBox="0 0 800 800" style="enable-background:new 0 0 800 800;" xml:space="preserve">
<style type="text/css">
	.st0{fill:#DDDDDD;}
</style>
<g id="XMLID_826_">
	<path id="XMLID_827_" class="st0" d="M781.87,148.1c-12.57,5.57-25.49,10.28-38.69,14.1c15.63-17.68,27.55-38.48,34.82-61.24
		c1.63-5.1-0.06-10.69-4.25-14.02c-4.19-3.34-10.01-3.74-14.62-1.01c-28.04,16.63-58.29,28.58-90.01,35.57
		c-31.95-31.22-75.35-48.99-120.21-48.99c-94.7,0-171.74,77.04-171.74,171.73c0,7.46,0.47,14.87,1.41,22.19
		c-117.51-10.32-226.76-68.07-301.78-160.1c-2.67-3.28-6.79-5.05-11.01-4.71c-4.22,0.33-8.01,2.71-10.14,6.37
		c-15.22,26.11-23.26,55.97-23.26,86.35c0,41.38,14.77,80.64,40.87,111.32c-7.94-2.75-15.64-6.18-22.99-10.26
		c-3.95-2.2-8.76-2.16-12.68,0.09s-6.38,6.38-6.49,10.9c-0.02,0.76-0.02,1.52-0.02,2.29c0,61.77,33.24,117.38,84.07,147.69
		c-4.37-0.44-8.73-1.07-13.07-1.9c-4.47-0.85-9.07,0.71-12.08,4.12c-3,3.41-4,8.16-2.61,12.49
		c18.81,58.74,67.25,101.94,125.8,115.11c-48.57,30.42-104.1,46.35-162.41,46.35c-12.17,0-24.4-0.71-36.37-2.13
		c-5.95-0.71-11.64,2.81-13.66,8.46c-2.03,5.66,0.12,11.97,5.18,15.21c74.9,48.02,161.5,73.41,250.44,73.41
		c174.85,0,284.23-82.45,345.2-151.62c76.03-86.25,119.63-200.41,119.63-313.2c0-4.71-0.07-9.47-0.22-14.21
		c29.99-22.6,55.82-49.95,76.83-81.38c3.19-4.77,2.85-11.08-0.85-15.48C793.27,147.19,787.12,145.77,781.87,148.1z"/>
</g>
</svg>
